<svg width="133" height="132" viewBox="0 0 133 132" fill="none" xmlns="http://www.w3.org/2000/svg">
<g clip-path="url(#clip0_3379_37549)">
<path d="M73.1381 101.988L73.1383 101.988L76.9292 113.879L76.9291 113.879L76.9321 113.888C77.427 115.347 77.5231 117.034 77.152 118.505C76.7819 119.973 75.9615 121.183 74.6558 121.792L66.9074 125.405C61.2388 128.048 54.7523 128.332 48.8748 126.192C45.9646 125.133 43.2916 123.511 41.0082 121.419C38.7249 119.326 36.876 116.805 35.5672 113.998L11.14 61.614C8.49672 55.9453 8.2135 49.4588 10.3527 43.5814C11.4119 40.6712 13.034 37.9981 15.1263 35.7148C17.2186 33.4314 19.7401 31.5826 22.5469 30.2737L57.4696 13.989C60.2764 12.6802 63.3136 11.937 66.4076 11.8019C69.5016 11.6668 72.592 12.1425 75.5022 13.2017C78.4124 14.2609 81.0854 15.883 83.3688 17.9753C85.6521 20.0676 87.501 22.5891 88.8098 25.3959L93.4296 35.3031C94.3375 37.2501 93.7086 39.5891 92.1351 41.1929C89.766 43.6077 87.9098 46.4967 86.6989 49.6878L86.6965 49.6946L73.4844 86.0942C71.6118 91.2075 71.49 96.7979 73.1381 101.988ZM64.8952 41.3104L29.9725 57.5951C28.6946 58.191 27.7057 59.2702 27.2234 60.5952C26.7412 61.9202 26.805 63.3826 27.4009 64.6605C27.9969 65.9384 29.076 66.9273 30.401 67.4096C31.7261 67.8919 33.1884 67.828 34.4663 67.2321L69.389 50.9474C70.667 50.3515 71.6559 49.2723 72.1381 47.9473C72.6204 46.6223 72.5565 45.1599 71.9606 43.882C71.3647 42.604 70.2855 41.6152 68.9605 41.1329C67.6355 40.6506 66.1732 40.7145 64.8952 41.3104ZM64.3069 62.8429L38.1149 75.0565C36.837 75.6524 35.8481 76.7316 35.3658 78.0566C34.8836 79.3816 34.9474 80.8439 35.5433 82.1219C36.1392 83.3998 37.2184 84.3887 38.5434 84.871C39.8684 85.3533 41.3308 85.2894 42.6087 84.6935L68.8007 72.48C70.0787 71.884 71.0676 70.8049 71.5498 69.4798C72.0321 68.1548 71.9682 66.6925 71.3723 65.4145C70.7764 64.1366 69.6972 63.1477 68.3722 62.6655C67.0472 62.1832 65.5849 62.247 64.3069 62.8429ZM50.7511 102.155L59.4818 98.0837C60.7597 97.4878 61.7486 96.4086 62.2308 95.0836C62.7131 93.7586 62.6493 92.2962 62.0534 91.0183C61.4574 89.7404 60.3783 88.7515 59.0532 88.2692C57.7282 87.7869 56.2659 87.8508 54.988 88.4467L46.2573 92.5179C44.9793 93.1138 43.9905 94.193 43.5082 95.518C43.0259 96.843 43.0898 98.3053 43.6857 99.5833C44.2816 100.861 45.3608 101.85 46.6858 102.332C48.0108 102.815 49.4731 102.751 50.7511 102.155Z" fill="white" stroke="#FF0A47"/>
<path d="M118.444 60.9937L101.523 54.8333C99.7068 54.172 98.7704 52.1637 99.4315 50.3474L99.8513 49.194C102.209 42.7163 109.364 39.3719 115.847 41.7121C115.866 41.7203 115.886 41.7277 115.907 41.734C122.376 44.1055 125.707 51.2664 123.351 57.7472C123.351 57.7473 123.351 57.7474 123.351 57.7474L122.93 58.9034C122.268 60.7191 120.26 61.6548 118.444 60.9937Z" fill="#FF0A47" stroke="white"/>
<path d="M85.332 90.9027L85.332 90.9027L94.9771 64.3968C95.6382 62.5802 97.6467 61.6435 99.4632 62.3047L116.385 68.4637C118.201 69.1248 119.138 71.1333 118.477 72.9497L108.83 99.453C108.639 99.979 108.296 100.435 107.848 100.766C107.848 100.766 107.848 100.766 107.848 100.766L93.6478 111.198L93.6477 111.198C92.8811 111.761 91.886 111.901 90.9926 111.572C90.1045 111.244 89.4368 110.489 89.2205 109.563C89.2205 109.563 89.2205 109.563 89.2205 109.563L85.2363 92.5095L85.2358 92.5074C85.1094 91.9769 85.1443 91.4184 85.332 90.9027Z" fill="white" stroke="#FF0A47"/>
<path d="M76.7863 100.192L76.7865 100.193L80.5774 112.084L80.5773 112.084L80.5803 112.092C81.0753 113.551 81.1713 115.238 80.8003 116.709C80.4301 118.177 79.6097 119.388 78.304 119.996L70.5556 123.61C64.887 126.253 58.4005 126.536 52.5231 124.397C49.6129 123.338 46.9398 121.716 44.6564 119.623C42.3731 117.531 40.5242 115.01 39.2154 112.203L14.7883 59.8185C12.1449 54.1499 11.8617 47.6634 14.0009 41.786C15.0602 38.8758 16.6822 36.2027 18.7745 33.9194C20.8668 31.636 23.3883 29.7872 26.1951 28.4783L61.1178 12.1936C63.9247 10.8848 66.9618 10.1416 70.0558 10.0065C73.1498 9.87141 76.2402 10.3471 79.1504 11.4063C82.0606 12.4655 84.7337 14.0876 87.017 16.1799C89.3003 18.2722 91.1492 20.7937 92.458 23.6005L97.0778 33.5076C97.9857 35.4547 97.3568 37.7936 95.7833 39.3975C93.4142 41.8122 91.5581 44.7013 90.3472 47.8924L90.3447 47.8992L77.1326 84.2988C75.2601 89.4121 75.1383 95.0025 76.7863 100.192ZM68.5434 39.515L33.6207 55.7997C32.3428 56.3956 31.3539 57.4748 30.8717 58.7998C30.3894 60.1248 30.4532 61.5871 31.0492 62.8651C31.6451 64.143 32.7242 65.1319 34.0493 65.6142C35.3743 66.0964 36.8366 66.0326 38.1146 65.4367L73.0373 49.152C74.3152 48.556 75.3041 47.4769 75.7863 46.1519C76.2686 44.8268 76.2048 43.3645 75.6088 42.0866C75.0129 40.8086 73.9338 39.8197 72.6087 39.3375C71.2837 38.8552 69.8214 38.9191 68.5434 39.515ZM67.9552 61.0475L41.7631 73.2611C40.4852 73.857 39.4963 74.9362 39.014 76.2612C38.5318 77.5862 38.5956 79.0485 39.1915 80.3265C39.7875 81.6044 40.8666 82.5933 42.1916 83.0756C43.5167 83.5578 44.979 83.494 46.2569 82.8981L72.449 70.6845C73.7269 70.0886 74.7158 69.0094 75.198 67.6844C75.6803 66.3594 75.6165 64.8971 75.0206 63.6191C74.4246 62.3412 73.3455 61.3523 72.0204 60.87C70.6954 60.3878 69.2331 60.4516 67.9552 61.0475ZM54.3993 100.359L63.13 96.2883C64.4079 95.6924 65.3968 94.6132 65.8791 93.2882C66.3613 91.9632 66.2975 90.5008 65.7016 89.2229C65.1057 87.9449 64.0265 86.9561 62.7015 86.4738C61.3765 85.9915 59.9141 86.0554 58.6362 86.6513L49.9055 90.7225C48.6276 91.3184 47.6387 92.3976 47.1564 93.7226C46.6742 95.0476 46.738 96.5099 47.3339 97.7879C47.9298 99.0658 49.009 100.055 50.334 100.537C51.659 101.019 53.1214 100.955 54.3993 100.359Z" fill="white" stroke="#FF0A47"/>
<path d="M121.07 61.8919L104.15 55.7315C102.333 55.0702 101.397 53.0619 102.058 51.2456L102.478 50.0922C104.835 43.6145 111.991 40.2701 118.474 42.6103C118.492 42.6185 118.512 42.6259 118.534 42.6322C125.002 45.0037 128.334 52.1646 125.978 58.6454C125.978 58.6455 125.978 58.6456 125.978 58.6456L125.556 59.8016C124.894 61.6173 122.886 62.553 121.07 61.8919Z" fill="#FF0A47" stroke="white"/>
<path d="M87.3992 91.5213L87.3992 91.5214C87.2115 92.037 87.1767 92.5955 87.3031 93.1261L87.3036 93.1282L91.2877 110.182C91.2877 110.182 91.2878 110.182 91.2878 110.182C91.5041 111.107 92.1717 111.863 93.0599 112.19C93.9533 112.52 94.9484 112.38 95.715 111.816L95.715 111.816L109.915 101.385L87.3992 91.5213ZM87.3992 91.5213L97.0444 65.0154M87.3992 91.5213L97.0444 65.0154M97.0444 65.0154C97.7054 63.1989 99.714 62.2622 101.53 62.9233L118.452 69.0823C120.269 69.7435 121.205 71.7519 120.544 73.5683L110.898 100.072C110.706 100.597 110.364 101.053 109.916 101.384L97.0444 65.0154Z" fill="white" stroke="#FF0A47"/>
</g>
<defs>
<clipPath id="clip0_3379_37549">
<rect width="132" height="132" fill="white" transform="translate(0.333313)"/>
</clipPath>
</defs>
</svg>
