<svg width="132" height="132" viewBox="0 0 132 132" fill="none" xmlns="http://www.w3.org/2000/svg">
<g clip-path="url(#clip0_3379_37556)">
<path d="M45.8545 31.4618L45.8547 31.4615C47.6594 29.4905 47.4901 26.3823 45.9706 23.6292C45.4919 22.7618 45.6818 21.751 46.3847 21.3376C47.8603 20.4699 49.4037 19.7551 50.9921 19.1936C51.7616 18.9216 52.6582 19.4267 53.0148 20.3513C54.1453 23.2821 56.4154 25.4088 59.0867 25.2914C61.754 25.1751 63.8325 22.8587 64.7061 19.8408C64.9817 18.8891 65.8312 18.3084 66.6214 18.5128C68.2503 18.934 69.849 19.5113 71.3947 20.2476C72.1311 20.5984 72.4082 21.5893 72.0065 22.4955C70.7335 25.3679 70.8342 28.4804 72.8057 30.2847C74.7749 32.0895 77.8818 31.9199 80.6326 30.402C81.4998 29.9235 82.5103 30.1129 82.9245 30.8153C83.7947 32.2914 84.5118 33.835 85.0733 35.4235C85.3447 36.1915 84.8403 37.0863 83.9165 37.443C81.5933 38.34 79.8003 39.9372 79.1958 41.8879C78.9838 42.5721 78.6324 43.1232 78.1214 43.3615L75.3352 44.6607C74.7879 44.9159 74.1671 44.8133 73.6291 44.4385C73.0871 44.0609 72.6862 43.441 72.6066 42.779C72.4506 41.4815 72.0909 40.1872 71.5092 38.9398C68.5297 32.5502 60.903 29.7737 54.5092 32.7552C48.1198 35.7346 45.3435 43.3622 48.323 49.7517C48.9049 50.9995 49.6654 52.1072 50.5593 53.061C51.0152 53.5474 51.2323 54.2527 51.1731 54.9103C51.1143 55.5631 50.7939 56.1045 50.2467 56.3597L47.4595 57.6593C46.9484 57.8977 46.3001 57.8125 45.6393 57.5351C43.757 56.745 41.3808 57.0921 39.2004 58.2942C38.3322 58.7728 37.3208 58.5828 36.9072 57.8797C36.0392 56.4039 35.3238 54.8606 34.7627 53.2729C34.4911 52.5042 34.9957 51.6088 35.9196 51.2521C38.8492 50.121 40.9753 47.8504 40.8586 45.1822L45.8545 31.4618ZM45.8545 31.4618C44.0484 33.4314 40.9373 33.5338 38.0632 32.2594M45.8545 31.4618L38.0632 32.2594M38.0632 32.2594C37.1571 31.8577 36.1665 32.1346 35.8157 32.8709C35.079 34.4173 34.501 36.018 34.0805 37.6486M38.0632 32.2594L34.0805 37.6486M34.0805 37.6486C33.8769 38.4381 34.4573 39.2862 35.4084 39.5612C38.4264 40.434 40.743 42.512 40.8586 45.1819L34.0805 37.6486Z" fill="#FF0A47" stroke="white"/>
<path d="M63.8266 98.5244L63.886 98.3951L64.0045 98.3163L88.3164 82.1734L88.3477 82.1526L88.3817 82.1368C88.4182 82.1198 88.4507 82.1089 88.4739 82.1019C88.4865 82.0981 88.4984 82.0949 88.5079 82.0925C88.7919 81.9549 89.0458 81.7618 89.2993 81.5327L89.3269 81.5078L89.3579 81.4872L105.857 70.5252L105.859 70.5236L105.863 70.5198C105.876 70.5095 105.894 70.4947 105.916 70.4787L105.916 70.4786L105.927 70.4708C105.983 70.4329 106.027 70.3943 106.092 70.3376C106.118 70.3146 106.148 70.2887 106.183 70.2587C106.221 70.2237 106.252 70.1965 106.279 70.1731C106.329 70.1294 106.363 70.0996 106.4 70.0593L106.405 70.0541L106.41 70.049C106.451 70.0076 106.485 69.9645 106.535 69.8995C106.555 69.8733 106.578 69.8437 106.606 69.8091C106.637 69.7674 106.662 69.7345 106.684 69.7061C106.726 69.6527 106.755 69.6154 106.785 69.5666L106.787 69.5648C106.819 69.5143 106.843 69.4665 106.877 69.398C106.891 69.3688 106.908 69.3358 106.928 69.2971L106.928 69.2966C106.941 69.2706 106.954 69.2472 106.965 69.2259C107.01 69.1393 107.037 69.0865 107.058 69.0282C107.091 68.9391 107.117 68.8441 107.15 68.7264L107.152 68.7186L107.154 68.7109C107.185 68.613 107.21 68.5189 107.227 68.4266C107.239 68.3659 107.243 68.3132 107.25 68.2388C107.253 68.205 107.256 68.1668 107.261 68.1213C107.265 68.0504 107.269 68.002 107.273 67.9617C107.277 67.9141 107.28 67.8779 107.281 67.8295C107.277 67.7849 107.273 67.7392 107.267 67.688C107.261 67.6315 107.254 67.5666 107.249 67.5002L107.249 67.4964C107.241 67.3876 107.23 67.2912 107.211 67.2022C107.193 67.129 107.168 67.0523 107.138 66.9551L107.13 66.9327C107.13 66.9311 107.129 66.9296 107.129 66.9281C107.113 66.8811 107.1 66.8397 107.087 66.8017C107.061 66.7218 107.04 66.6566 107.011 66.5843C107.002 66.5647 106.996 66.5477 106.991 66.5356C106.989 66.5277 106.986 66.5201 106.984 66.5136C106.982 66.5079 106.981 66.5032 106.98 66.5003C106.979 66.5 106.979 66.4997 106.979 66.4994L96.912 44.9101C96.1654 43.3089 94.258 42.6148 92.6578 43.361L37.9953 68.8505L37.6848 68.9953L37.4377 68.758L31.6593 63.2092C31.6592 63.2092 31.6592 63.2091 31.6592 63.2091C30.7075 62.2959 29.2876 62.0601 28.0905 62.6183L17.124 67.7321C15.5237 68.4783 14.8295 70.3856 15.5758 71.9859C16.322 73.5862 18.2293 74.2804 19.8296 73.5342L28.4966 69.4927L28.8072 69.3478L29.0543 69.5853L57.283 96.7066L57.5301 96.944L57.3978 97.2602C56.4789 99.456 55.4605 102.445 55.163 105.414C54.8648 108.39 55.2983 111.256 57.1708 113.313L57.1708 113.313C59.4882 115.859 62.9447 116.107 66.1594 115.584L66.7675 115.485L66.7391 116.101C66.6972 117.012 66.8668 117.937 67.2799 118.823C68.636 121.731 72.0927 122.994 75.0072 121.635C77.9151 120.279 79.1763 116.816 77.8204 113.908C77.558 113.345 77.2131 112.848 76.8125 112.416L76.3461 111.913L76.9679 111.623L104.213 98.9183L104.834 98.6288L104.92 99.3083C104.995 99.8932 105.154 100.477 105.416 101.04C106.772 103.948 110.235 105.208 113.143 103.852C116.057 102.493 117.312 99.0333 115.956 96.1251C115.692 95.559 115.354 95.0608 114.952 94.6371L114.474 94.1333L115.103 93.8399L116.001 93.4212C117.602 92.675 118.296 90.7677 117.55 89.1674C116.803 87.567 114.896 86.8728 113.296 87.619L69.9091 107.851L69.8938 107.858L69.878 107.864C66.8591 109.03 64.9466 109.37 63.7616 109.402C62.5894 109.435 62.084 109.166 61.9468 109.05L61.9217 109.029L61.8996 109.004C61.7183 108.805 61.6156 108.542 61.5543 108.282C61.4914 108.015 61.4618 107.706 61.4575 107.37C61.4487 106.697 61.5406 105.863 61.7192 104.934C62.0769 103.074 62.7946 100.775 63.8266 98.5244Z" fill="white" stroke="#FF0A47"/>
<path d="M47.2966 29.2982L47.2969 29.2979C49.1016 27.3269 48.9322 24.2187 47.4127 21.4656C46.934 20.5982 47.1239 19.5875 47.8268 19.1741C49.3024 18.3063 50.8458 17.5916 52.4342 17.03C53.2037 16.758 54.1003 17.2631 54.4569 18.1877C55.5874 21.1185 57.8575 23.2452 60.5288 23.1279C63.1962 23.0115 65.2746 20.6951 66.1483 17.6772C66.4238 16.7255 67.2733 16.1448 68.0636 16.3492C69.6924 16.7705 71.2911 17.3478 72.8368 18.0841C73.5733 18.4349 73.8503 19.4257 73.4487 20.332C72.1756 23.2043 72.2763 26.3169 74.2478 28.1212C76.217 29.926 79.324 29.7563 82.0747 28.2384C82.9419 27.76 83.9525 27.9493 84.3666 28.6517C85.2368 30.1278 85.954 31.6715 86.5154 33.26C86.7868 34.0279 86.2824 34.9227 85.3586 35.2794C83.0354 36.1765 81.2424 37.7736 80.6379 39.7244C80.4259 40.4085 80.0745 40.9596 79.5635 41.1979L76.7773 42.4971C76.2301 42.7523 75.6092 42.6497 75.0712 42.2749C74.5292 41.8974 74.1283 41.2775 74.0487 40.6154C73.8927 39.3179 73.5331 38.0237 72.9513 36.7762C69.9719 30.3867 62.3451 27.6101 55.9513 30.5916C49.5619 33.571 46.7857 41.1987 49.7651 47.5881C50.347 48.8359 51.1075 49.9436 52.0014 50.8974C52.4573 51.3838 52.6744 52.0891 52.6152 52.7467C52.5564 53.3996 52.236 53.9409 51.6888 54.1961L48.9017 55.4958C48.3905 55.7341 47.7422 55.6489 47.0814 55.3715C45.1991 54.5814 42.823 54.9285 40.6425 56.1306C39.7743 56.6092 38.7629 56.4193 38.3493 55.7161C37.4813 54.2403 36.7659 52.697 36.2049 51.1093C35.9332 50.3407 36.4378 49.4452 37.3617 49.0885C40.2913 47.9575 42.4174 45.6869 42.3008 43.0186L47.2966 29.2982ZM47.2966 29.2982C45.4905 31.2679 42.3794 31.3702 39.5053 30.0958M47.2966 29.2982L39.5053 30.0958M39.5053 30.0958C38.5993 29.6941 37.6086 29.9711 37.2579 30.7073C36.5211 32.2538 35.9431 33.8544 35.5226 35.485M39.5053 30.0958L35.5226 35.485M35.5226 35.485C35.319 36.2745 35.8995 37.1226 36.8505 37.3976C39.8685 38.2704 42.1851 40.3484 42.3007 43.0183L35.5226 35.485Z" fill="#FF0A47" stroke="white"/>
<path d="M65.2683 95.9929L65.3276 95.8636L65.4462 95.7848L89.7581 79.6419L89.7894 79.6211L89.8234 79.6053C89.8598 79.5883 89.8924 79.5774 89.9155 79.5704C89.9282 79.5666 89.9401 79.5634 89.9495 79.561C90.2335 79.4234 90.4874 79.2303 90.741 79.0012L90.7686 78.9763L90.7995 78.9557L107.298 67.9937L107.301 67.9921L107.305 67.9883C107.317 67.978 107.335 67.9632 107.357 67.9473L107.357 67.9471L107.369 67.9393C107.425 67.9014 107.469 67.8628 107.533 67.8061C107.56 67.7832 107.589 67.7572 107.624 67.7272C107.663 67.6923 107.694 67.665 107.721 67.6416C107.77 67.5979 107.805 67.5681 107.842 67.5278L107.847 67.5226L107.852 67.5175C107.893 67.4761 107.926 67.433 107.977 67.368C107.997 67.3418 108.02 67.3122 108.047 67.2776C108.079 67.236 108.104 67.203 108.126 67.1746C108.167 67.1212 108.196 67.0839 108.227 67.0352L108.228 67.0333C108.26 66.9828 108.284 66.935 108.318 66.8666C108.333 66.8373 108.35 66.8043 108.369 66.7657L108.37 66.7651C108.383 66.7391 108.395 66.7157 108.406 66.6944C108.451 66.6078 108.479 66.555 108.5 66.4967C108.532 66.4076 108.559 66.3126 108.591 66.1949L108.593 66.1871L108.596 66.1794C108.626 66.0815 108.652 65.9874 108.669 65.8951C108.68 65.8344 108.685 65.7817 108.691 65.7073C108.694 65.6735 108.698 65.6353 108.702 65.5898C108.706 65.5189 108.711 65.4705 108.714 65.4302C108.719 65.3826 108.722 65.3464 108.723 65.298C108.719 65.2534 108.714 65.2077 108.709 65.1565C108.703 65.1 108.696 65.0351 108.691 64.9687L108.69 64.9649C108.682 64.8561 108.672 64.7597 108.653 64.6707C108.635 64.5975 108.61 64.5209 108.579 64.4236L108.572 64.4012C108.572 64.3997 108.571 64.3981 108.571 64.3966C108.555 64.3496 108.541 64.3082 108.529 64.2702C108.503 64.1903 108.482 64.1251 108.452 64.0528C108.444 64.0332 108.437 64.0162 108.433 64.0041C108.43 63.9962 108.428 63.9886 108.426 63.9821C108.424 63.9764 108.422 63.9717 108.421 63.9688C108.421 63.9685 108.421 63.9682 108.421 63.9679L98.3537 42.3786C97.607 40.7774 95.6997 40.0833 94.0995 40.8295L39.437 66.319L39.1265 66.4638L38.8794 66.2265L33.1009 60.6777C33.1009 60.6777 33.1009 60.6776 33.1008 60.6776C32.1492 59.7644 30.7293 59.5286 29.5322 60.0868L18.5657 65.2006C16.9654 65.9468 16.2712 67.8541 17.0174 69.4544C17.7637 71.0547 19.671 71.7489 21.2713 71.0027L29.9383 66.9612L30.2489 66.8163L30.496 67.0538L58.7246 94.1751L58.9718 94.4126L58.8395 94.7287C57.9206 96.9245 56.9021 99.9139 56.6047 102.883C56.3065 105.859 56.7399 108.724 58.6125 110.781L58.6125 110.781C60.9299 113.327 64.3864 113.575 67.6011 113.053L68.2091 112.954L68.1808 113.569C68.1388 114.481 68.3084 115.406 68.7215 116.292C70.0776 119.2 73.5344 120.462 76.4489 119.103C79.3568 117.747 80.6179 114.284 79.262 111.377C78.9997 110.814 78.6548 110.317 78.2541 109.884L77.7878 109.381L78.4095 109.091L105.654 96.3868L106.275 96.0973L106.362 96.7768C106.436 97.3617 106.596 97.9457 106.858 98.5084C108.214 101.416 111.677 102.676 114.584 101.32C117.499 99.9614 118.754 96.5018 117.398 93.5936C117.134 93.0275 116.796 92.5294 116.394 92.1056L115.916 91.6018L116.545 91.3084L117.443 90.8897C119.043 90.1435 119.737 88.2362 118.991 86.6359C118.245 85.0355 116.338 84.3413 114.737 85.0875L71.3508 105.319L71.3355 105.326L71.3197 105.332C68.3008 106.499 66.3882 106.838 65.2033 106.871C64.0311 106.903 63.5257 106.635 63.3884 106.519L63.3634 106.497L63.3413 106.473C63.16 106.273 63.0573 106.011 62.996 105.751C62.9331 105.484 62.9035 105.174 62.8991 104.838C62.8904 104.166 62.9823 103.331 63.1609 102.403C63.5186 100.542 64.2363 98.2431 65.2683 95.9929Z" fill="white" stroke="#FF0A47"/>
</g>
<defs>
<clipPath id="clip0_3379_37556">
<rect width="132" height="132" fill="white"/>
</clipPath>
</defs>
</svg>
