<svg width="48" height="64" viewBox="0 0 48 64" fill="none" xmlns="http://www.w3.org/2000/svg">
<path d="M13.6617 40.3624C14.2075 39.6032 14.7897 38.9225 15.4082 38.3203C17.14 36.6113 19.0199 34.9935 21.0479 33.4668C23.0758 31.9173 24.9443 30.6071 26.6533 29.5361C26.7434 29.4793 26.8326 29.4219 26.9211 29.3642C27.488 28.3117 27.7715 27.2102 27.7715 26.0596C27.7715 24.0999 27.1562 22.5618 25.9258 21.4453C24.7181 20.306 22.9977 19.7363 20.7646 19.7363C19.8798 19.7363 19.0542 19.8606 18.288 20.1091L18.0742 20.6836L13.0742 25.6836L4.32422 21.5137C4.41536 21.1947 4.56348 20.7731 4.76855 20.249C4.97363 19.7249 5.52051 18.8021 6.40918 17.4805C7.29785 16.1361 8.32324 14.9626 9.48535 13.96C9.98544 13.5285 10.5741 13.1139 11.2514 12.7163C11.3028 12.6391 11.3553 12.5605 11.4092 12.4805C12.2979 11.1361 13.3232 9.96256 14.4854 8.95996C15.6475 7.95736 17.2881 7.0459 19.4072 6.22559C21.5492 5.38249 23.8962 4.96094 26.4482 4.96094C31.4385 4.96094 35.54 6.47624 38.7529 9.50684C41.9886 12.5374 43.6064 16.263 43.6064 20.6836C43.6064 23.1673 43.071 25.4232 42 27.4512C40.929 29.4792 39.5277 31.2109 37.7959 32.6465C37.228 33.1098 36.6552 33.562 36.0775 34.0033C35.1619 35.3775 34.0681 36.5919 32.7959 37.6465C31.0641 39.0592 29.2868 40.3695 27.4639 41.5771C25.9275 42.5884 24.3579 43.7242 22.7551 44.9845C22.7092 45.0531 22.6642 45.1218 22.6201 45.1904H43.6064V55L38.6064 60H4.32422C4.32422 56.3997 4.90527 53.1413 6.06738 50.2246C7.22949 47.3079 8.67643 45.0065 10.4082 43.3203C11.4401 42.302 12.5246 41.316 13.6617 40.3624Z" fill="white"/>
<path d="M11.0674 45.2246C12.2295 42.3079 13.6764 40.0065 15.4082 38.3203C17.14 36.6113 19.0199 34.9935 21.0479 33.4668C23.0758 31.9173 24.9443 30.6071 26.6533 29.5361C28.3851 28.4424 29.832 27.1777 30.9941 25.7422C32.179 24.2839 32.7715 22.723 32.7715 21.0596C32.7715 19.0999 32.1562 17.5618 30.9258 16.4453C29.7181 15.306 27.9977 14.7363 25.7646 14.7363C23.9873 14.7363 22.4492 15.2376 21.1504 16.2402C19.8743 17.2428 19.0312 18.234 18.6211 19.2139L18.0742 20.6836M18.0742 20.6836L9.32422 16.5137C9.41536 16.1947 9.56348 15.7731 9.76855 15.249C9.97363 14.7249 10.5205 13.8021 11.4092 12.4805C12.2979 11.1361 13.3232 9.96257 14.4854 8.95996C15.6475 7.95736 17.2881 7.0459 19.4072 6.22559C21.5492 5.38249 23.8962 4.96094 26.4482 4.96094C31.4385 4.96094 35.54 6.47624 38.7529 9.50684C41.9886 12.5374 43.6064 16.263 43.6064 20.6836C43.6064 23.1673 43.071 25.4232 42 27.4512C40.929 29.4792 39.5277 31.2109 37.7959 32.6465C36.0641 34.0592 34.2868 35.3695 32.4639 36.5771C30.6637 37.762 28.818 39.1178 26.9268 40.6445C25.0355 42.1484 23.5999 43.6637 22.6201 45.1904H43.6064M18.0742 20.6836L13.0742 25.6836M43.6064 45.1904V55L38.6064 60H4.32422C4.32422 56.3997 4.90527 53.1413 6.06738 50.2246C7.22949 47.3079 8.67643 45.0065 10.4082 43.3203C12.14 41.6113 14.0199 39.9935 16.0479 38.4668C18.0758 36.9173 19.9443 35.6071 21.6533 34.5361C23.3851 33.4424 24.832 32.1777 25.9941 30.7422C27.179 29.2839 27.7715 27.723 27.7715 26.0596C27.7715 24.0999 27.1562 22.5618 25.9258 21.4453C24.7181 20.306 22.9977 19.7363 20.7646 19.7363C18.9873 19.7363 17.4492 20.2376 16.1504 21.2402C14.8743 22.2428 14.0312 23.234 13.6211 24.2139L13.0742 25.6836M43.6064 45.1904L38 51M13.0742 25.6836L4.32422 21.5137C4.41536 21.1947 4.56348 20.7731 4.76855 20.249C4.97363 19.7249 5.52051 18.8021 6.40918 17.4805C7.29785 16.1361 8.32324 14.9626 9.48535 13.96C10.6475 12.9574 12.2881 12.0459 14.4072 11.2256C16.5492 10.3825 18.8962 9.96094 21.4482 9.96094C26.4385 9.96094 30.54 11.4762 33.7529 14.5068C36.9886 17.5374 38.6064 21.263 38.6064 25.6836C38.6064 28.1673 38.071 30.4232 37 32.4512C35.929 34.4792 34.5277 36.2109 32.7959 37.6465C31.0641 39.0592 29.2868 40.3695 27.4639 41.5771C25.6637 42.762 23.818 44.1178 21.9268 45.6445" stroke="#FF0A47"/>
<path d="M38.6064 60H4.32422C4.32422 56.3997 4.90527 53.1413 6.06738 50.2246C7.22949 47.3079 8.67643 45.0065 10.4082 43.3203C12.14 41.6113 14.0199 39.9935 16.0479 38.4668C18.0758 36.9173 19.9443 35.6071 21.6533 34.5361C23.3851 33.4424 24.832 32.1777 25.9941 30.7422C27.179 29.2839 27.7715 27.723 27.7715 26.0596C27.7715 24.0999 27.1562 22.5618 25.9258 21.4453C24.7181 20.306 22.9977 19.7363 20.7646 19.7363C18.9873 19.7363 17.4492 20.2376 16.1504 21.2402C14.8743 22.2428 14.0312 23.234 13.6211 24.2139L13.0742 25.6836L4.32422 21.5137C4.41536 21.1947 4.56348 20.7731 4.76855 20.249C4.97363 19.7249 5.52051 18.8021 6.40918 17.4805C7.29785 16.1361 8.32324 14.9626 9.48535 13.96C10.6475 12.9574 12.2881 12.0459 14.4072 11.2256C16.5492 10.3825 18.8962 9.96094 21.4482 9.96094C26.4385 9.96094 30.54 11.4762 33.7529 14.5068C36.9886 17.5374 38.6064 21.263 38.6064 25.6836C38.6064 28.1673 38.071 30.4232 37 32.4512C35.929 34.4792 34.5277 36.2109 32.7959 37.6465C31.0641 39.0592 29.2868 40.3695 27.4639 41.5771C25.6637 42.762 23.818 44.1178 21.9268 45.6445C20.0355 47.1484 18.5999 48.6637 17.6201 50.1904H38.6064V60Z" fill="white"/>
<path d="M38.6064 60V60.5H39.1064V60H38.6064ZM4.32427 60H3.82426V60.5H4.32427V60ZM10.4082 43.3203L10.757 43.6786L10.7594 43.6762L10.4082 43.3203ZM16.0479 38.4668L16.3486 38.8663L16.3514 38.8641L16.0479 38.4668ZM21.6533 34.5361L21.9188 34.9598L21.9203 34.9589L21.6533 34.5361ZM25.9258 21.4453L25.5826 21.8091L25.5898 21.8156L25.9258 21.4453ZM16.1504 21.2402L15.8449 20.8444L15.8415 20.8471L16.1504 21.2402ZM13.6211 24.2139L13.1599 24.0208L13.156 24.0301L13.1525 24.0395L13.6211 24.2139ZM13.0742 25.6836L12.8591 26.135L13.3523 26.37L13.5428 25.858L13.0742 25.6836ZM4.32427 21.5137L3.8435 21.3763L3.72729 21.7831L4.10916 21.965L4.32427 21.5137ZM6.40922 17.4805L6.82415 17.7595L6.82633 17.7562L6.40922 17.4805ZM14.4072 11.2256L14.5877 11.6919L14.5904 11.6908L14.4072 11.2256ZM33.7529 14.5068L33.4098 14.8706L33.4111 14.8718L33.7529 14.5068ZM32.7959 37.6465L33.112 38.0339L33.115 38.0314L32.7959 37.6465ZM27.4639 41.5771L27.7388 41.9948L27.74 41.994L27.4639 41.5771ZM21.9268 45.6445L22.238 46.0359L22.2408 46.0336L21.9268 45.6445ZM17.6201 50.1904L17.1993 49.9204L16.7051 50.6904H17.6201V50.1904ZM38.6064 50.1904H39.1064V49.6904H38.6064V50.1904ZM38.6064 59.5H4.32427V60.5H38.6064V59.5ZM4.82427 60C4.82427 56.4539 5.39644 53.2595 6.53191 50.4097L5.60293 50.0395C4.41418 53.0231 3.82426 56.3456 3.82426 60H4.82427ZM6.53191 50.4097C7.67548 47.5395 9.0882 45.3036 10.757 43.6786L10.0594 42.9621C8.26474 44.7095 6.78359 47.0763 5.60293 50.0395L6.53191 50.4097ZM10.7594 43.6762C12.4747 41.9835 14.3376 40.3801 16.3486 38.8663L15.7471 38.0673C13.7021 39.6068 11.8053 41.2392 10.057 42.9644L10.7594 43.6762ZM16.3514 38.8641C18.3702 37.3217 20.2258 36.0208 21.9188 34.9598L21.3878 34.1125C19.6629 35.1934 17.7815 36.513 15.7443 38.0695L16.3514 38.8641ZM21.9203 34.9589C23.6933 33.8391 25.1828 32.5391 26.3828 31.0568L25.6061 30.4269C24.4819 31.8156 23.0769 33.0456 21.3863 34.1134L21.9203 34.9589ZM26.3828 31.0568C27.6302 29.5215 28.2715 27.8526 28.2715 26.0596H27.2715C27.2715 27.5933 26.7285 29.0455 25.6061 30.4269L26.3828 31.0568ZM28.2715 26.0596C28.2715 23.9866 27.6156 22.3035 26.2618 21.075L25.5898 21.8156C26.6969 22.8202 27.2715 24.2133 27.2715 26.0596H28.2715ZM26.2689 21.0816C24.9402 19.8281 23.0804 19.2363 20.7646 19.2363V20.2363C22.9151 20.2363 24.4959 20.7839 25.5826 21.8091L26.2689 21.0816ZM20.7646 19.2363C18.8865 19.2363 17.2387 19.7685 15.8449 20.8444L16.4559 21.636C17.6598 20.7067 19.0881 20.2363 20.7646 20.2363V19.2363ZM15.8415 20.8471C14.5308 21.8769 13.6158 22.9316 13.1599 24.0208L14.0823 24.4069C14.4467 23.5365 15.2178 22.6088 16.4593 21.6334L15.8415 20.8471ZM13.1525 24.0395L12.6056 25.5092L13.5428 25.858L14.0897 24.3882L13.1525 24.0395ZM13.2893 25.2322L4.53936 21.0623L4.10916 21.965L12.8591 26.135L13.2893 25.2322ZM4.80502 21.651C4.88988 21.354 5.03153 20.9492 5.23422 20.4312L4.30297 20.0668C4.0955 20.597 3.94093 21.0353 3.8435 21.3763L4.80502 21.651ZM5.23422 20.4312C5.41622 19.9661 5.93155 19.0869 6.82415 17.7595L5.9943 17.2015C5.10956 18.5172 4.53112 19.4838 4.30297 20.0668L5.23422 20.4312ZM6.82633 17.7562C7.69097 16.4481 8.68634 15.3097 9.81201 14.3385L9.15877 13.5814C7.96023 14.6154 6.90483 15.824 5.99212 17.2048L6.82633 17.7562ZM9.81201 14.3385C10.9153 13.3867 12.4988 12.5005 14.5877 11.6919L14.2267 10.7593C12.0774 11.5913 10.3797 12.528 9.15877 13.5814L9.81201 14.3385ZM14.5904 11.6908C16.6679 10.8731 18.952 10.4609 21.4482 10.4609V9.46094C18.8403 9.46094 16.4304 9.89191 14.2241 10.7603L14.5904 11.6908ZM21.4482 10.4609C26.3288 10.4609 30.302 11.939 33.4098 14.8706L34.096 14.1431C30.7781 11.0134 26.5481 9.46094 21.4482 9.46094V10.4609ZM33.4111 14.8718C36.5462 17.8081 38.1064 21.4018 38.1064 25.6836H39.1064C39.1064 21.1243 37.431 17.2667 34.0947 14.1419L33.4111 14.8718ZM38.1064 25.6836C38.1064 28.0929 37.5877 30.2675 36.5579 32.2177L37.4421 32.6847C38.5542 30.5788 39.1064 28.2418 39.1064 25.6836H38.1064ZM36.5579 32.2177C35.517 34.1888 34.157 35.8687 32.4768 37.2615L33.115 38.0314C34.8983 36.5531 36.3411 34.7696 37.4421 32.6847L36.5579 32.2177ZM32.4798 37.2591C30.7606 38.6616 28.9966 39.962 27.1877 41.1603L27.74 41.994C29.577 40.777 31.3677 39.4569 33.112 38.0339L32.4798 37.2591ZM27.189 41.1595C25.3737 42.3543 23.515 43.7199 21.6127 45.2555L22.2408 46.0336C24.1211 44.5158 25.9537 43.1698 27.7388 41.9948L27.189 41.1595ZM21.6156 45.2532C19.6947 46.7806 18.2168 48.335 17.1993 49.9204L18.0409 50.4605C18.9831 48.9924 20.3763 47.5163 22.238 46.0359L21.6156 45.2532ZM17.6201 50.6904H38.6064V49.6904H17.6201V50.6904ZM38.1064 50.1904V60H39.1064V50.1904H38.1064Z" fill="#FF0A47"/>
</svg>
