<svg width="133" height="132" viewBox="0 0 133 132" fill="none" xmlns="http://www.w3.org/2000/svg">
<path d="M108.599 56.2547L122.176 85.3704C122.674 86.4383 122.727 87.6601 122.324 88.7673C121.921 89.8744 121.095 90.7762 120.027 91.2741L48.3577 124.694C47.2899 125.192 46.068 125.245 44.9609 124.842C43.8538 124.44 42.952 123.613 42.4541 122.545L28.8772 93.4296C28.1837 91.9424 26.4159 91.299 24.9287 91.9925C23.942 92.4526 22.7692 92.0257 22.3091 91.039L19.3433 84.679C19.2459 84.4701 19.1694 84.2521 19.1149 84.0282L14.0203 63.1135C13.6254 61.4926 14.4296 59.8182 15.9417 59.1131L90.626 24.2872C92.1381 23.5822 93.9376 24.0424 94.9256 25.3868L107.672 42.7331C107.809 42.9189 107.927 43.1176 108.024 43.3265L110.99 49.6866C111.45 50.6732 111.023 51.8461 110.036 52.3062C108.549 52.9996 107.906 54.7675 108.599 56.2547ZM37.5757 91.0603L46.7273 110.686C47.7776 112.938 50.455 113.913 52.7074 112.863L108.168 87.0009C110.42 85.9506 111.395 83.2732 110.344 81.0208L101.193 61.3951C100.143 59.1427 97.4651 58.1682 95.2127 59.2185L39.7523 85.0801C37.4998 86.1305 36.5254 88.8079 37.5757 91.0603ZM10.3286 45.3705L83.7065 11.1538C85.4584 10.3369 87.5408 11.0948 88.3577 12.8467L89.1543 14.555C89.9712 16.3069 89.2133 18.3893 87.4614 19.2062L14.0835 53.4228C12.3317 54.2398 10.2492 53.4818 9.4323 51.7299L8.63573 50.0217C7.81881 48.2698 8.57676 46.1874 10.3286 45.3705Z" fill="white" stroke="#FF0A47"/>
<path d="M48.1582 86.2536L76.7425 72.9246C78.4944 72.1076 80.5768 72.8656 81.3938 74.6175L84.2791 80.8051C85.096 82.5569 84.3381 84.6394 82.5862 85.4563L54.0018 98.7854C52.25 99.6023 50.1675 98.8444 49.3506 97.0925L46.4653 90.9049C45.6484 89.153 46.4063 87.0706 48.1582 86.2536Z" fill="#FF0A47" stroke="white"/>
<path d="M110.722 52.0083L124.299 81.1241C124.797 82.1919 124.851 83.4138 124.448 84.5209C124.045 85.6281 123.218 86.5298 122.15 87.0278L50.4809 120.448C49.4131 120.946 48.1912 120.999 47.0841 120.596C45.9769 120.193 45.0752 119.367 44.5773 118.299L31.0004 89.1833C30.3069 87.6961 28.539 87.0527 27.0518 87.7462C26.0652 88.2062 24.8923 87.7794 24.4323 86.7927L21.4665 80.4327C21.3691 80.2238 21.2926 80.0058 21.238 79.7818L16.1434 58.8672C15.7486 57.2462 16.5528 55.5719 18.0648 54.8668L92.7492 20.0409C94.2612 19.3358 96.0608 19.796 97.0487 21.1405L109.796 38.4868C109.932 38.6725 110.05 38.8713 110.147 39.0802L113.113 45.4402C113.573 46.4269 113.146 47.5997 112.159 48.0598C110.672 48.7533 110.029 50.5211 110.722 52.0083ZM39.6988 86.814L48.8504 106.44C49.9008 108.692 52.5782 109.667 54.8306 108.616L110.291 82.7546C112.543 81.7043 113.518 79.0269 112.468 76.7744L103.316 57.1488C102.266 54.8964 99.5883 53.9218 97.3359 54.9722L41.8754 80.8338C39.623 81.8841 38.6485 84.5615 39.6988 86.814ZM12.4518 41.1241L85.8296 6.90748C87.5815 6.09056 89.664 6.8485 90.4809 8.60039L91.2775 10.3086C92.0944 12.0605 91.3364 14.143 89.5845 14.9599L16.2067 49.1765C14.4548 49.9934 12.3724 49.2355 11.5555 47.4836L10.7589 45.7754C9.94198 44.0235 10.6999 41.941 12.4518 41.1241Z" fill="white" stroke="#FF0A47"/>
<path d="M48.8658 84.1304L77.4502 70.8013C79.2021 69.9843 81.2845 70.7423 82.1014 72.4942L84.9867 78.6818C85.8036 80.4337 85.0457 82.5161 83.2938 83.333L54.7095 96.6621C52.9576 97.479 50.8752 96.7211 50.0582 94.9692L47.1729 88.7816C46.356 87.0297 47.1139 84.9473 48.8658 84.1304Z" fill="#FF0A47" stroke="white"/>
</svg>
