<svg width="48" height="64" viewBox="0 0 48 64" fill="none" xmlns="http://www.w3.org/2000/svg">
<path fill-rule="evenodd" clip-rule="evenodd" d="M27.5063 25.4771C27.0003 25.5627 26.4605 25.6055 25.8867 25.6055H20.999V30.6049C22.9966 30.5852 24.5771 30.0386 25.7402 28.9648C26.7566 28.0443 27.3453 26.8817 27.5063 25.4771Z" fill="white"/>
<path d="M36.8553 29.2803C36.6847 29.2041 36.5377 29.1412 36.4141 29.0918L37.0977 28.75C37.1159 28.7421 37.1342 28.734 37.1526 28.7257C37.6631 28.4958 38.2372 28.1279 38.875 27.6221C39.5586 27.0752 40.2308 26.4144 40.8916 25.6396C41.5752 24.8649 42.1562 23.8623 42.6348 22.6318C43.1361 21.3786 43.3867 20.0342 43.3867 18.5986C43.3867 14.7249 41.8828 11.4893 38.875 8.8916C35.8672 6.27116 31.891 4.96094 26.9463 4.96094C24.8044 4.96094 22.7536 5.23438 20.7939 5.78125C18.8343 6.30534 17.262 6.88639 16.0771 7.52441C14.8923 8.13965 13.7757 8.88021 12.7275 9.74609C11.7021 10.612 11.0527 11.2158 10.7793 11.5576C10.5059 11.8766 10.3008 12.1273 10.1641 12.3096L10.6228 12.7683L16.4531 18.5986L17.5127 17.4707C18.1963 16.7415 19.3128 15.9896 20.8623 15.2148C22.4346 14.4401 24.1094 14.0527 25.8867 14.0527C27.9603 14.0527 29.5895 14.5768 30.7744 15.625C31.9593 16.6732 32.5518 18.0176 32.5518 19.6582C32.5518 21.4355 31.9479 22.8711 30.7402 23.9648C29.8868 24.7526 28.8089 25.2567 27.5063 25.4771C27.3453 26.8817 26.7566 28.0443 25.7402 28.9648C24.5771 30.0386 22.9966 30.5852 20.999 30.6049V34.3555H26.2627C28.7692 34.3555 30.7288 34.9479 32.1416 36.1328C33.5771 37.3177 34.2949 38.8216 34.2949 40.6445C34.2949 42.4674 33.5658 43.9714 32.1074 45.1562C31.3337 45.7949 30.3747 46.2614 29.2304 46.5558C29.0229 47.9748 28.3152 49.1749 27.1074 50.1562C25.6719 51.3411 23.5983 51.9336 20.8867 51.9336C19.5423 51.9336 18.2321 51.7513 16.9561 51.3867C15.7028 51.0221 14.666 50.612 13.8457 50.1562C13.0482 49.6777 12.2848 49.1423 11.5557 48.5498C10.8265 47.9346 10.3594 47.513 10.1543 47.2852C10.0113 47.1104 9.89607 46.9634 9.80848 46.844L8.38672 48.335L9.10449 49.1211C9.56022 49.6908 10.3008 50.3516 11.3262 51.1035C12.3743 51.8327 13.582 52.5732 14.9492 53.3252C16.3164 54.0771 18.071 54.7152 20.2129 55.2393C22.3776 55.7861 24.6221 56.0596 26.9463 56.0596C31.4443 56.0596 35.2178 55.0807 38.2668 53.123C38.9248 52.7005 39.5491 52.2324 40.1396 51.7188C43.4893 48.8249 45.1641 45.3727 45.1641 41.3623C45.1641 39.585 44.8451 37.9557 44.207 36.4746C43.569 34.9707 42.8626 33.7972 42.0879 32.9541C41.3359 32.111 40.4587 31.3704 39.4561 30.7324C38.4535 30.0716 37.7471 29.6615 37.3369 29.502C37.1597 29.4185 36.9991 29.3447 36.8553 29.2803Z" fill="white"/>
<path d="M32.1074 45.1562C33.5658 43.9714 34.2949 42.4674 34.2949 40.6445C34.2949 38.8216 33.5771 37.3177 32.1416 36.1328C30.7288 34.9479 28.7692 34.3555 26.2627 34.3555H20.999V30.6049C20.9617 30.6053 20.9243 30.6055 20.8867 30.6055H15.999V39.3555H21.2627C23.7692 39.3555 25.7288 39.9479 27.1416 41.1328C28.5771 42.3177 29.2949 43.8216 29.2949 45.6445C29.2949 45.9577 29.2734 46.2615 29.2304 46.5558C30.3747 46.2614 31.3337 45.7949 32.1074 45.1562Z" fill="white"/>
<path d="M30.7402 23.9648C31.9479 22.8711 32.5518 21.4355 32.5518 19.6582C32.5518 18.0176 31.9593 16.6732 30.7744 15.625C29.5895 14.5768 27.9603 14.0527 25.8867 14.0527C24.1094 14.0527 22.4346 14.4401 20.8623 15.2148C19.3128 15.9896 18.1963 16.7415 17.5127 17.4707L16.4531 18.5986L10.6228 12.7683C9.60583 13.3325 8.64074 13.9917 7.72754 14.7461C6.70215 15.612 6.05273 16.2158 5.7793 16.5576C5.50586 16.8766 5.30078 17.1273 5.16406 17.3096L11.4531 23.5986L12.5127 22.4707C13.1963 21.7415 14.3128 20.9896 15.8623 20.2148C17.4346 19.4401 19.1094 19.0527 20.8867 19.0527C22.9603 19.0527 24.5895 19.5768 25.7744 20.625C26.9593 21.6732 27.5518 23.0176 27.5518 24.6582C27.5518 24.9397 27.5366 25.2127 27.5063 25.4771C28.8089 25.2567 29.8868 24.7526 30.7402 23.9648Z" fill="white"/>
<path d="M15.1543 42.2852C14.9492 42.0345 14.8011 41.8408 14.71 41.7041L9.80848 46.844C9.89607 46.9634 10.0113 47.1104 10.1543 47.2852C10.3594 47.513 10.8265 47.9346 11.5557 48.5498C12.2848 49.1423 13.0482 49.6777 13.8457 50.1562C14.666 50.612 15.7028 51.0221 16.9561 51.3867C18.2321 51.7513 19.5423 51.9336 20.8867 51.9336C23.5983 51.9336 25.6719 51.3411 27.1074 50.1562C28.3152 49.1749 29.0229 47.9748 29.2304 46.5558C28.2514 46.8077 27.1369 46.9336 25.8867 46.9336C24.5423 46.9336 23.2321 46.7513 21.9561 46.3867C20.7028 46.0221 19.666 45.612 18.8457 45.1562C18.0482 44.6777 17.2848 44.1423 16.5557 43.5498C15.8265 42.9346 15.3594 42.513 15.1543 42.2852Z" fill="white"/>
<path d="M26.9463 56.0596C24.6221 56.0596 22.3776 55.7861 20.2129 55.2393C18.071 54.7152 16.3164 54.0771 14.9492 53.3252C13.582 52.5732 12.3743 51.8327 11.3262 51.1035C10.3008 50.3516 9.56022 49.6908 9.10449 49.1211L8.38672 48.335L9.80848 46.844C9.77041 46.7922 9.73757 46.7455 9.70996 46.7041L3.38672 53.335L4.10449 54.1211C4.56022 54.6908 5.30078 55.3516 6.32617 56.1035C7.37435 56.8327 8.58203 57.5732 9.94922 58.3252C11.3164 59.0771 13.071 59.7152 15.2129 60.2393C17.3776 60.7861 19.6221 61.0596 21.9463 61.0596C27.415 61.0596 31.8128 59.6126 35.1396 56.7188C36.4309 55.6031 37.4733 54.4046 38.2668 53.123C35.2178 55.0807 31.4443 56.0596 26.9463 56.0596Z" fill="white"/>
<path d="M15.999 30.6055H20.8867C20.9243 30.6055 20.9617 30.6053 20.999 30.6049V25.6055L15.999 30.6055Z" fill="white"/>
<path fill-rule="evenodd" clip-rule="evenodd" d="M39.2131 52.4666C38.9058 52.6965 38.5904 52.9152 38.2668 53.123C38.0609 53.4556 37.8382 53.7825 37.5988 54.1039C36.9156 55.021 36.0959 55.8926 35.1396 56.7188C31.8128 59.6126 27.415 61.0596 21.9463 61.0596C19.6221 61.0596 17.3776 60.7861 15.2129 60.2393C13.0709 59.7152 11.3164 59.0771 9.9492 58.3252C8.58202 57.5732 7.37433 56.8327 6.32616 56.1035C5.30077 55.3516 4.56021 54.6908 4.10448 54.1211L3.3867 53.335L9.70995 46.7041C9.73756 46.7455 9.7704 46.7922 9.80846 46.844L14.7099 41.7041C14.8011 41.8408 14.9492 42.0345 15.1543 42.2852C15.2037 42.3401 15.2684 42.4063 15.3483 42.4837C15.5998 42.7275 16.0023 43.0829 16.5556 43.5498C17.2848 44.1423 18.0482 44.6777 18.8457 45.1562C19.666 45.612 20.7028 46.0221 21.956 46.3867C23.2321 46.7513 24.5423 46.9336 25.8867 46.9336C26.918 46.9336 27.857 46.8479 28.7037 46.6765C28.8834 46.6401 29.059 46.5999 29.2303 46.5558C29.2558 46.3817 29.2737 46.2044 29.2841 46.0238C29.2913 45.8989 29.2949 45.7725 29.2949 45.6445C29.2949 43.8216 28.5771 42.3177 27.1416 41.1328C25.7288 39.9479 23.7692 39.3555 21.2627 39.3555H15.999V30.6055L20.999 25.6055H25.8867C26.2708 25.6055 26.6398 25.5863 26.9935 25.5479C27.1682 25.529 27.3391 25.5053 27.5063 25.4771C27.5256 25.3089 27.5387 25.1373 27.5457 24.9623C27.5497 24.862 27.5517 24.7607 27.5517 24.6582C27.5517 23.0176 26.9593 21.6732 25.7744 20.625C24.5895 19.5768 22.9603 19.0527 20.8867 19.0527C19.1094 19.0527 17.4346 19.4401 15.8623 20.2148C14.3128 20.9896 13.1963 21.7415 12.5127 22.4707L11.4531 23.5986L5.16405 17.3096C5.30077 17.1273 5.50584 16.8766 5.77928 16.5576C6.05272 16.2158 6.70213 15.612 7.72752 14.7461C8.37064 14.2148 9.03949 13.7307 9.73408 13.2938C9.87935 13.2024 10.0257 13.1131 10.1733 13.0259C10.322 12.9379 10.4718 12.8521 10.6228 12.7683L10.164 12.3096C10.1992 12.2628 10.2388 12.2114 10.2829 12.1556C10.4106 11.994 10.5761 11.7947 10.7793 11.5576C11.0527 11.2158 11.7021 10.612 12.7275 9.74609C13.7757 8.88021 14.8922 8.13965 16.0771 7.52441C17.262 6.88639 18.8343 6.30534 20.7939 5.78125C22.7536 5.23438 24.8043 4.96094 26.9463 4.96094C31.8909 4.96094 35.8672 6.27116 38.875 8.8916C41.8828 11.4893 43.3867 14.7249 43.3867 18.5986C43.3867 20.0342 43.1361 21.3786 42.6348 22.6318C42.1562 23.8623 41.5752 24.8649 40.8916 25.6396C40.2308 26.4144 39.5586 27.0752 38.875 27.6221C38.5279 27.8973 38.1997 28.1317 37.8903 28.3253C37.7838 28.3919 37.6796 28.4537 37.5776 28.5106C37.4313 28.5923 37.2897 28.664 37.1526 28.7257C37.1342 28.734 37.1159 28.7421 37.0976 28.75L36.414 29.0918C36.5377 29.1412 36.6847 29.2041 36.8553 29.2803C36.9922 29.3416 37.1442 29.4115 37.3114 29.49C37.3199 29.4939 37.3284 29.4979 37.3369 29.502C37.3706 29.515 37.4062 29.5298 37.4439 29.5463C37.4655 29.5558 37.4879 29.5658 37.5108 29.5764C37.5212 29.5812 37.5317 29.586 37.5423 29.591C37.5618 29.6002 37.5818 29.6098 37.6022 29.6197C38.0256 29.826 38.6436 30.1969 39.456 30.7324C40.4586 31.3704 41.3359 32.111 42.0879 32.9541C42.8626 33.7972 43.569 34.9707 44.207 36.4746C44.845 37.9557 45.164 39.585 45.164 41.3623C45.164 45.3727 43.4892 48.8249 40.1396 51.7188C39.8395 51.9798 39.5307 52.2291 39.2131 52.4666ZM40.7947 52.4744C40.2248 52.9699 39.6252 53.4257 38.9961 53.8414C38.1597 55.1459 37.0889 56.356 35.7946 57.4744C32.2452 60.5612 27.5954 62.0596 21.9463 62.0596C19.5442 62.0596 17.2186 61.777 14.9718 61.2098C12.7782 60.6728 10.935 60.0086 9.46728 59.2014C8.07588 58.4361 6.83746 57.6774 5.75509 56.9244L5.74485 56.9173L5.73479 56.9099C4.69657 56.1486 3.88206 55.4357 3.34504 54.7724L2.01904 53.3201L9.84875 45.1095L9.94419 45.2527L14.8487 40.1095L14.999 40.3349V30.1913L20.5848 24.6055H25.8867C26.1159 24.6055 26.3374 24.598 26.5513 24.5833C26.534 23.2528 26.0556 22.2089 25.1118 21.374C24.1604 20.5324 22.7936 20.0527 20.8867 20.0527C19.2613 20.0527 17.7387 20.4055 16.3066 21.1107C14.7987 21.8649 13.8061 22.5532 13.2422 23.1546L11.4756 25.0353L3.84367 17.4034L4.36405 16.7096C4.5185 16.5036 4.73677 16.2376 5.01001 15.9185C5.35955 15.4869 6.08214 14.8267 7.08234 13.9821L7.0906 13.9751C7.70718 13.4657 8.34697 12.9972 9.00982 12.5696L8.84367 12.4034L9.36405 11.7096C9.5185 11.5036 9.73676 11.2376 10.01 10.9185C10.3595 10.4869 11.0821 9.82668 12.0823 8.98206L12.0906 8.97509C13.1902 8.06669 14.3635 7.28803 15.6097 6.64036C16.886 5.95409 18.5353 5.35044 20.5304 4.81659C22.5804 4.24501 24.7202 3.96094 26.9463 3.96094C32.0715 3.96094 36.2999 5.32265 39.5302 8.13616C42.7504 10.9179 44.3867 14.4265 44.3867 18.5986C44.3867 20.1517 44.1153 21.6215 43.5649 22.9991C43.0566 24.3049 42.4233 25.4132 41.6472 26.2948C40.9534 27.1075 40.2381 27.8122 39.4997 28.4029L39.4964 28.4056C39.2019 28.6391 38.9132 28.8507 38.6305 29.0379C39.0265 29.2657 39.4858 29.5545 39.9997 29.8931C41.071 30.5756 42.0157 31.3719 42.8293 32.283C43.7041 33.2368 44.463 34.5179 45.1266 36.0818C45.8229 37.6993 46.164 39.464 46.164 41.3623C46.164 45.695 44.3377 49.4129 40.7947 52.4744ZM15.0127 40.3555H21.2627C23.6187 40.3555 25.3219 40.9118 26.499 41.899L26.505 41.904C27.716 42.9036 28.2949 44.1273 28.2949 45.6445C28.2949 45.6754 28.2947 45.7062 28.2942 45.7368C27.5773 45.8662 26.7761 45.9336 25.8867 45.9336C24.6346 45.9336 23.4175 45.7641 22.2325 45.4257C21.0346 45.0771 20.0784 44.6952 19.3457 44.2901C18.597 43.8399 17.8795 43.3365 17.1933 42.7794C16.4802 42.1775 16.0728 41.806 15.9117 41.6316C15.7213 41.3982 15.6034 41.2415 15.542 41.1494L15.0127 40.3555Z" fill="#FF0A47"/>
<path d="M31.4131 34.0918C31.641 34.1829 31.9486 34.3197 32.3359 34.502C32.7461 34.6615 33.4525 35.0716 34.4551 35.7324C35.4577 36.3704 36.335 37.111 37.0869 37.9541C37.8617 38.7972 38.568 39.9707 39.2061 41.4746C39.8441 42.9557 40.1631 44.585 40.1631 46.3623C40.1631 50.3727 38.4883 53.8249 35.1387 56.7188C31.8118 59.6126 27.4141 61.0596 21.9453 61.0596C19.6211 61.0596 17.3766 60.7861 15.2119 60.2393C13.07 59.7152 11.3154 59.0771 9.94824 58.3252C8.58105 57.5732 7.37337 56.8327 6.3252 56.1035C5.2998 55.3516 4.55924 54.6908 4.10352 54.1211L3.38574 53.335L9.70898 46.7041C9.80013 46.8408 9.94824 47.0345 10.1533 47.2852C10.3584 47.513 10.8255 47.9346 11.5547 48.5498C12.2839 49.1423 13.0472 49.6777 13.8447 50.1562C14.665 50.612 15.7018 51.0221 16.9551 51.3867C18.2311 51.7513 19.5413 51.9336 20.8857 51.9336C23.5973 51.9336 25.6709 51.3411 27.1064 50.1562C28.5648 48.9714 29.2939 47.4674 29.2939 45.6445C29.2939 43.8216 28.5762 42.3177 27.1406 41.1328C25.7279 39.9479 23.7682 39.3555 21.2617 39.3555H15.998V30.6055H20.8857C22.9365 30.6055 24.5544 30.0586 25.7393 28.9648C26.9469 27.8711 27.5508 26.4355 27.5508 24.6582C27.5508 23.0176 26.9583 21.6732 25.7734 20.625C24.5885 19.5768 22.9593 19.0527 20.8857 19.0527C19.1084 19.0527 17.4336 19.4401 15.8613 20.2148C14.3118 20.9896 13.1953 21.7415 12.5117 22.4707L11.4521 23.5986L5.16309 17.3096C5.2998 17.1273 5.50488 16.8766 5.77832 16.5576C6.05176 16.2158 6.70117 15.612 7.72656 14.7461C8.77474 13.8802 9.89128 13.1396 11.0762 12.5244C12.2611 11.8864 13.8333 11.3053 15.793 10.7812C17.7526 10.2344 19.8034 9.96094 21.9453 9.96094C26.89 9.96094 30.8662 11.2712 33.874 13.8916C36.8818 16.4893 38.3857 19.7249 38.3857 23.5986C38.3857 25.0342 38.1351 26.3786 37.6338 27.6318C37.1553 28.8623 36.5742 29.8649 35.8906 30.6396C35.2298 31.4144 34.5576 32.0752 33.874 32.6221C33.2132 33.1462 32.6208 33.5221 32.0967 33.75L31.4131 34.0918Z" fill="white"/>
<path fill-rule="evenodd" clip-rule="evenodd" d="M5.16307 17.3096C5.29979 17.1273 5.50487 16.8766 5.7783 16.5576C6.05174 16.2158 6.70116 15.612 7.72655 14.7461C8.77472 13.8802 9.89126 13.1396 11.0762 12.5244C12.2611 11.8864 13.8333 11.3053 15.793 10.7812C17.7526 10.2344 19.8034 9.96094 21.9453 9.96094C26.89 9.96094 30.8662 11.2712 33.874 13.8916C36.8818 16.4893 38.3857 19.7249 38.3857 23.5986C38.3857 25.0342 38.1351 26.3786 37.6338 27.6318C37.1553 28.8623 36.5742 29.8649 35.8906 30.6396C35.2298 31.4144 34.5576 32.0752 33.874 32.6221C33.4075 32.9921 32.975 33.2883 32.5766 33.5106C32.4107 33.6032 32.2507 33.683 32.0967 33.75L31.4131 34.0918C31.6409 34.1829 31.9486 34.3197 32.3359 34.502C32.3696 34.515 32.4052 34.5298 32.4429 34.5463C32.4645 34.5558 32.4869 34.5658 32.5099 34.5764C32.5392 34.5899 32.5697 34.6044 32.6012 34.6197C33.0246 34.826 33.6426 35.1969 34.4551 35.7324C35.4577 36.3704 36.3349 37.111 37.0869 37.9541C37.8616 38.7972 38.568 39.9707 39.206 41.4746C39.8441 42.9557 40.1631 44.585 40.1631 46.3623C40.1631 50.3727 38.4883 53.8249 35.1387 56.7188C31.8118 59.6126 27.414 61.0596 21.9453 61.0596C19.6211 61.0596 17.3766 60.7861 15.2119 60.2393C13.07 59.7152 11.3154 59.0771 9.94823 58.3252C8.58104 57.5732 7.37336 56.8327 6.32518 56.1035C5.29979 55.3516 4.55923 54.6908 4.1035 54.1211L3.38573 53.335L9.70897 46.7041C9.80011 46.8408 9.94823 47.0345 10.1533 47.2852C10.2027 47.3401 10.2674 47.4063 10.3473 47.4837C10.5988 47.7275 11.0013 48.0829 11.5547 48.5498C12.2838 49.1423 13.0472 49.6777 13.8447 50.1562C14.665 50.612 15.7018 51.0221 16.9551 51.3867C18.2311 51.7513 19.5413 51.9336 20.8857 51.9336C23.5973 51.9336 25.6709 51.3411 27.1064 50.1562C28.5648 48.9714 29.2939 47.4674 29.2939 45.6445C29.2939 43.8216 28.5762 42.3177 27.1406 41.1328C25.7278 39.9479 23.7682 39.3555 21.2617 39.3555H15.998V30.6055H20.8857C22.9365 30.6055 24.5543 30.0586 25.7392 28.9648C26.9469 27.8711 27.5508 26.4355 27.5508 24.6582C27.5508 23.0176 26.9583 21.6732 25.7734 20.625C24.5885 19.5768 22.9593 19.0527 20.8857 19.0527C19.1084 19.0527 17.4336 19.4401 15.8613 20.2148C14.3118 20.9896 13.1953 21.7415 12.5117 22.4707L11.4521 23.5986L5.16307 17.3096ZM16.3057 21.1107C14.7978 21.8649 13.8051 22.5532 13.2412 23.1546L13.2406 23.1554L11.4746 25.0353L3.84269 17.4034L4.36307 16.7096C4.51752 16.5036 4.73579 16.2376 5.00904 15.9185C5.35858 15.4869 6.08117 14.8267 7.08137 13.9821L7.08963 13.9751C8.1893 13.0667 9.36257 12.288 10.6088 11.6403C11.8852 10.954 13.5344 10.3504 15.5295 9.81656C17.5795 9.245 19.7193 8.96094 21.9453 8.96094C27.0706 8.96094 31.2989 10.3227 34.5293 13.1362C37.7494 15.9179 39.3857 19.4265 39.3857 23.5986C39.3857 25.1517 39.1143 26.6215 38.5639 27.9991C38.0556 29.3049 37.4223 30.4133 36.6461 31.2948C35.9524 32.1075 35.2371 32.8122 34.4987 33.4029L34.4954 33.4056C34.2011 33.639 33.9124 33.8506 33.6296 34.0379C34.0255 34.2657 34.4847 34.5544 34.9986 34.893C36.07 35.5756 37.0148 36.3719 37.8283 37.2831C38.7032 38.2368 39.462 39.5179 40.1257 41.0818C40.822 42.6993 41.1631 44.464 41.1631 46.3623C41.1631 50.695 39.3367 54.4129 35.7937 57.4743C32.2443 60.5612 27.5945 62.0596 21.9453 62.0596C19.5432 62.0596 17.2176 61.777 14.9708 61.2098C12.7772 60.6728 10.934 60.0086 9.46631 59.2014C8.0749 58.4361 6.83648 57.6774 5.75412 56.9244L5.74388 56.9173L5.73382 56.9099C4.69559 56.1486 3.88109 55.4357 3.34406 54.7724L2.01807 53.3201L9.84777 45.1095L10.541 46.1494C10.6024 46.2415 10.7203 46.3982 10.9107 46.6316C11.0718 46.806 11.4792 47.1775 12.1923 47.7794C12.8786 48.3365 13.596 48.8399 14.3447 49.2901C15.0775 49.6952 16.0336 50.0771 17.2316 50.4257C18.4165 50.7641 19.6336 50.9336 20.8857 50.9336C23.4682 50.9336 25.2796 50.3675 26.4699 49.385L26.4758 49.3801C27.7088 48.3783 28.2939 47.1558 28.2939 45.6445C28.2939 44.1273 27.7151 42.9036 26.504 41.904L26.498 41.899C25.3209 40.9118 23.6177 40.3555 21.2617 40.3555H14.998V29.6055H20.8857C22.756 29.6055 24.107 29.1106 25.061 28.23L25.0679 28.2236C26.0459 27.3379 26.5508 26.1819 26.5508 24.6582C26.5508 23.292 26.0723 22.2245 25.1108 21.374C24.1595 20.5324 22.7926 20.0527 20.8857 20.0527C19.2603 20.0527 17.7378 20.4055 16.3057 21.1107Z" fill="#FF0A47"/>
</svg>
