<svg width="72" height="84" viewBox="0 0 72 84" fill="none" xmlns="http://www.w3.org/2000/svg">
<rect x="21" y="10" width="51" height="64" rx="6.33956" fill="#FF0A47"/>
<rect x="0.226318" y="0.527222" width="67.6219" height="83.4725" rx="6.33956" fill="#27388B"/>
<g clip-path="url(#clip0_2516_38400)">
<path d="M55.28 36.52L44.88 26.12C44.8286 26.0686 44.763 26.0336 44.6917 26.0195C44.6204 26.0053 44.5464 26.0126 44.4793 26.0404C44.4121 26.0682 44.3546 26.1153 44.3142 26.1758C44.2737 26.2362 44.2521 26.3073 44.252 26.38V27.324C43.9803 26.9171 43.6118 26.5839 43.1797 26.3542C42.7477 26.1246 42.2654 26.0056 41.776 26.008H34.196C34.1479 26.0066 34.1 26.0152 34.0552 26.033C34.0105 26.0509 33.9699 26.0778 33.936 26.112L28.988 31.052L24.04 26.108C23.9887 26.0567 23.9233 26.0217 23.8521 26.0075C23.781 25.9933 23.7072 26.0004 23.64 26.028C23.5959 26.0476 23.5564 26.0762 23.524 26.112L13.124 36.512C13.0732 36.5636 13.0385 36.629 13.0243 36.7001C13.0101 36.7711 13.017 36.8448 13.044 36.912C13.064 36.9559 13.0925 36.9954 13.128 37.028H13.112L23.512 47.428L33.912 57.828C33.9457 57.8627 33.9862 57.8902 34.0309 57.9088C34.0756 57.9274 34.1236 57.9366 34.172 57.936C34.2201 57.936 34.2677 57.9265 34.312 57.908C34.3551 57.8884 34.3944 57.8613 34.428 57.828L44.828 47.428L55.228 37.028C55.2622 36.9951 55.2895 36.9557 55.308 36.912C55.3414 36.8508 55.3564 36.7814 55.3515 36.7119C55.3465 36.6424 55.3217 36.5758 55.28 36.52ZM23.416 46.304L14.256 37.148H23.416V46.304ZM23.416 36.412H14.256L18.712 31.94H23.416V36.412ZM23.416 31.212H19.464L23.416 27.264V31.212ZM24.148 37.156H33.308L24.148 46.304V37.156ZM33.828 56.728L24.312 47.208L33.828 37.668V56.728ZM33.828 36.42H24.148V27.256L28.712 31.832C28.781 31.9009 28.8745 31.9396 28.972 31.9396C29.0695 31.9396 29.163 31.9009 29.232 31.832L33.828 27.256V36.42ZM48.912 31.208H47.212C46.9163 31.2118 46.6229 31.1562 46.3491 31.0444C46.0753 30.9326 45.8267 30.767 45.6182 30.5573C45.4096 30.3476 45.2453 30.0982 45.135 29.8238C45.0247 29.5494 44.9706 29.2557 44.976 28.96V27.256L48.912 31.208ZM34.56 26.736H41.76C42.3524 26.736 42.9205 26.971 43.3397 27.3895C43.7589 27.808 43.995 28.3757 43.996 28.968C44.0117 29.5334 43.8074 30.0828 43.4262 30.5006C43.0449 30.9184 42.5165 31.172 41.952 31.208H39.604C39.5064 31.208 39.4128 31.2468 39.3438 31.3158C39.2748 31.3848 39.236 31.4784 39.236 31.576C39.236 31.6736 39.2748 31.7672 39.3438 31.8362C39.4128 31.9052 39.5064 31.944 39.604 31.944H41.92C42.4898 31.971 43.0267 32.2185 43.4172 32.6344C43.8077 33.0502 44.021 33.6017 44.012 34.172C44.012 34.4656 43.9542 34.7564 43.8418 35.0277C43.7295 35.299 43.5648 35.5455 43.3571 35.7531C43.1495 35.9607 42.903 36.1254 42.6317 36.2378C42.3604 36.3502 42.0697 36.408 41.776 36.408H34.576L34.56 26.736ZM34.56 56.736V47.56H43.72L34.56 56.736ZM44.24 46.808H34.56V37.148H44.24V46.808ZM44.24 36.408H43.724C43.9217 36.2391 44.0953 36.044 44.24 35.828V36.408ZM44.976 46.3V37.148H54.136L44.976 46.3ZM44.976 36.408V34.176C44.9893 33.6025 45.2152 33.0545 45.61 32.6383C46.0047 32.2221 46.5401 31.9675 47.112 31.924H49.636L54.136 36.408H44.976Z" fill="white" stroke="white" stroke-width="0.2" stroke-linejoin="round"/>
</g>
<rect x="27" y="74.6775" width="14" height="1" fill="white"/>
<defs>
<clipPath id="clip0_2516_38400">
<rect width="44" height="34" fill="white" transform="translate(12 25)"/>
</clipPath>
</defs>
</svg>
