<svg width="240" height="265" viewBox="0 0 240 265" fill="none" xmlns="http://www.w3.org/2000/svg">
<g clip-path="url(#clip0_3543_35182)">
<path d="M203.197 174.379L115.305 129.722L153.695 45.3477L165.979 51.1604L178.44 92.4145L160.991 118.462L160.628 119.004L161.244 119.321L191.215 134.71L203.197 174.379ZM268.032 173.888L268.616 173.749L268.443 173.175L223.556 24.5698L223.383 23.9955L222.799 24.1342L55.2806 63.9528L54.6969 64.0915L54.8704 64.6659L99.7568 213.271L99.9303 213.845L100.514 213.707L268.032 173.888ZM246.995 -12.5737L309.583 194.635L75.8592 250.191L63.4308 244.079L13.6963 43.1907L234.412 -18.6724L246.995 -12.5737Z" fill="#FF0A47" stroke="white" stroke-width="1.2"/>
<path d="M102.415 123.437L153.313 45.8514L165.466 86.0873L148.018 112.135L147.654 112.677L148.271 112.993L178.242 128.383L190.224 168.051L102.415 123.437ZM255.059 167.561L255.643 167.422L255.469 166.848L210.583 18.2426L210.409 17.6682L209.826 17.8069L42.3074 57.6255L41.7237 57.7643L41.8972 58.3386L86.7836 206.944L86.9571 207.518L87.5408 207.379L255.059 167.561ZM234.115 -18.5903L296.609 188.308L63.2512 243.776L0.757226 36.8782L234.115 -18.5903Z" fill="#FF0A47" stroke="white" stroke-width="1.2"/>
<path d="M54.4745 64.1156L41.1794 57.4997" stroke="white" stroke-width="1.2"/>
<path d="M178.018 92.2783L164.723 85.6624" stroke="white" stroke-width="1.2"/>
</g>
<defs>
<clipPath id="clip0_3543_35182">
<rect width="240" height="264" fill="white" transform="translate(0 0.578857)"/>
</clipPath>
</defs>
</svg>
