<svg width="286" height="314" viewBox="0 0 286 314" fill="none" xmlns="http://www.w3.org/2000/svg">
<path d="M362.313 501.884C372.244 498.797 375.956 482.656 379.717 466.302C383.103 451.578 386.529 436.682 394.568 430.98C402.618 425.27 417.823 426.951 432.848 428.613C449.496 430.454 465.922 432.27 472.15 423.982C478.688 415.239 471.934 399.489 465.228 383.849C459.402 370.264 453.612 356.762 456.601 348.009M362.313 501.884L458.155 244.714C460.975 253.804 473.857 261.433 486.703 269.041C501.23 277.645 515.71 286.221 515.536 296.849C515.401 307.548 500.589 315.909 485.768 324.276C472.709 331.648 459.642 339.024 456.601 348.009M362.313 501.884C351.9 505.164 339.269 493.583 326.726 482.082C315.831 472.092 305.003 462.164 295.753 462.091L362.313 501.884ZM456.601 348.009L456.364 347.928M456.601 348.009L456.364 347.928C456.364 347.928 456.364 347.928 456.364 347.928M456.364 347.928C454.729 352.717 455.684 358.866 457.797 365.601C459.616 371.397 462.306 377.672 464.999 383.95C465.439 384.977 465.879 386.003 466.316 387.028C469.426 394.329 472.344 401.529 473.726 407.919C475.109 414.316 474.937 419.836 471.95 423.831C469.056 427.683 463.883 429.332 457.398 429.786C450.921 430.239 443.207 429.495 435.307 428.632C434.497 428.544 433.686 428.454 432.875 428.364C425.771 427.579 418.609 426.787 412.183 426.776C405.031 426.765 398.733 427.719 394.424 430.776C390.114 433.833 387.135 439.467 384.787 446.229C382.683 452.287 381.072 459.294 379.473 466.245C379.286 467.061 379.098 467.876 378.91 468.689C377.118 476.437 375.271 483.966 372.698 489.924C370.123 495.889 366.848 500.213 362.238 501.646L362.238 501.646C357.479 503.145 352.212 501.481 346.633 498.061C341.058 494.644 335.228 489.509 329.366 484.16C328.543 483.409 327.72 482.654 326.896 481.899C321.862 477.283 316.83 472.669 311.961 469.036C306.303 464.815 300.815 461.881 295.755 461.841L295.755 461.841C290.626 461.812 285.006 464.66 279.191 468.789C274.133 472.38 268.892 476.969 263.662 481.548C262.872 482.239 262.082 482.93 261.294 483.618C255.274 488.866 249.307 493.9 243.659 497.223C238.004 500.55 232.728 502.127 228.064 500.559L228.064 500.559C223.464 499.024 220.281 494.628 217.849 488.609C215.421 482.598 213.769 475.034 212.189 467.261C212.006 466.356 211.823 465.448 211.64 464.54C210.253 457.656 208.858 450.736 206.972 444.738C204.84 437.957 202.063 432.299 197.904 429.205C193.903 426.225 187.781 425.301 180.726 425.292C174.767 425.285 168.095 425.932 161.395 426.582C160.153 426.703 158.909 426.823 157.669 426.94C149.733 427.686 141.938 428.266 135.379 427.605C128.815 426.944 123.554 425.047 120.614 420.9C117.691 416.78 117.648 411.201 119.198 404.791C120.747 398.388 123.869 391.22 127.193 383.97C127.703 382.857 128.218 381.742 128.732 380.628C131.566 374.494 134.389 368.382 136.354 362.731C138.673 356.061 139.82 349.972 138.331 345.211C136.804 340.288 132.388 335.82 126.695 331.584C121.696 327.864 115.673 324.297 109.672 320.743C108.831 320.245 107.991 319.748 107.154 319.25C100.334 315.194 93.7342 311.13 88.8596 306.835C83.9796 302.534 80.8815 298.048 80.9614 293.156L80.9614 293.155C81.0236 288.235 84.2606 283.783 89.2758 279.555C94.2854 275.331 101.016 271.373 107.964 267.434C108.84 266.937 109.721 266.44 110.601 265.943C116.689 262.506 122.793 259.061 127.88 255.451C133.695 251.323 138.233 246.947 139.883 242.072C141.518 237.283 140.563 231.135 138.45 224.399C136.632 218.603 133.941 212.328 131.249 206.05C130.809 205.024 130.368 203.997 129.932 202.972C126.822 195.671 123.903 188.471 122.521 182.081C121.139 175.684 121.31 170.163 124.298 166.168C127.192 162.317 132.365 160.668 138.849 160.214C145.326 159.761 153.041 160.505 160.941 161.368C161.75 161.456 162.561 161.546 163.372 161.636C170.477 162.421 177.638 163.213 184.064 163.224C191.217 163.235 197.514 162.281 201.824 159.224C206.134 156.167 209.112 150.533 211.461 143.771C213.564 137.713 215.175 130.706 216.774 123.755C216.962 122.939 217.149 122.124 217.337 121.311C219.13 113.563 220.977 106.034 223.549 100.076C226.125 94.1109 229.4 89.7872 234.009 88.3545L234.01 88.3542C238.768 86.8555 244.035 88.5187 249.615 91.9389C255.189 95.3557 261.019 100.491 266.881 105.84C267.704 106.59 268.527 107.345 269.35 108.1C274.385 112.717 279.418 117.331 284.287 120.964C289.945 125.185 295.432 128.119 300.492 128.159L300.493 128.159C305.621 128.188 311.242 125.34 317.056 121.211C322.114 117.62 327.355 113.032 332.586 108.452C333.375 107.761 334.165 107.07 334.954 106.382C340.973 101.134 346.94 96.1001 352.589 92.7768C358.243 89.4498 363.52 87.873 368.183 89.4408L368.184 89.441C372.784 90.9758 375.967 95.3723 378.398 101.391C380.826 107.402 382.479 114.966 384.058 122.739C384.242 123.644 384.425 124.552 384.608 125.46C385.995 132.344 387.389 139.264 389.275 145.262C391.408 152.043 394.185 157.701 398.344 160.795C402.345 163.775 408.471 164.706 415.531 164.722C421.515 164.737 428.217 164.093 434.943 163.447C436.164 163.329 437.386 163.212 438.605 163.098C446.546 162.359 454.344 161.782 460.899 162.438C467.46 163.095 472.712 164.979 475.634 169.1C478.557 173.22 478.599 178.799 477.049 185.209C475.501 191.612 472.379 198.78 469.055 206.03C468.545 207.143 468.03 208.258 467.515 209.372C464.682 215.506 461.858 221.618 459.893 227.269C457.575 233.939 456.428 240.028 457.917 244.789C459.444 249.712 463.86 254.18 469.552 258.416C474.552 262.136 480.575 265.703 486.576 269.257C487.416 269.754 488.257 270.252 489.094 270.75C495.914 274.806 502.513 278.87 507.388 283.165C512.268 287.466 515.366 291.952 515.286 296.844L515.286 296.845C515.224 301.765 511.987 306.217 506.972 310.445C501.962 314.669 495.232 318.627 488.284 322.566C487.407 323.063 486.527 323.56 485.646 324.058C479.558 327.494 473.454 330.94 468.368 334.55C462.552 338.677 458.014 343.053 456.364 347.928Z" fill="white" stroke="#0D1140" stroke-width="0.5"/>
<path d="M375.353 501.884C385.284 498.797 388.996 482.656 392.757 466.302C396.144 451.578 399.569 436.682 407.609 430.98C415.659 425.27 430.864 426.951 445.889 428.613C462.536 430.454 478.963 432.27 485.19 423.982C491.729 415.239 484.975 399.489 478.268 383.849C472.442 370.264 466.652 356.762 469.642 348.009M375.353 501.884L471.196 244.714C474.015 253.804 486.898 261.433 499.743 269.041C514.27 277.645 528.75 286.221 528.577 296.849C528.441 307.548 513.63 315.909 498.809 324.276C485.749 331.648 472.682 339.024 469.642 348.009M375.353 501.884C364.94 505.164 352.309 493.583 339.767 482.082C328.872 472.092 318.043 462.164 308.794 462.091L375.353 501.884ZM469.642 348.009L469.405 347.928M469.642 348.009L469.405 347.928C469.405 347.928 469.405 347.928 469.405 347.928M469.405 347.928C467.77 352.717 468.725 358.866 470.838 365.601C472.656 371.397 475.347 377.672 478.039 383.95C478.48 384.977 478.92 386.003 479.356 387.028C482.466 394.329 485.385 401.529 486.767 407.919C488.149 414.316 487.978 419.836 484.99 423.831C482.096 427.683 476.923 429.332 470.439 429.786C463.962 430.239 456.247 429.495 448.347 428.632C447.538 428.544 446.727 428.454 445.915 428.364C438.811 427.579 431.65 426.787 425.224 426.776C418.071 426.765 411.774 427.719 407.464 430.776C403.154 433.833 400.176 439.467 397.828 446.229C395.724 452.287 394.113 459.294 392.514 466.245C392.326 467.061 392.139 467.876 391.951 468.689C390.158 476.437 388.311 483.966 385.739 489.924C383.163 495.889 379.888 500.213 375.279 501.646L375.278 501.646C370.52 503.145 365.253 501.481 359.673 498.061C354.099 494.644 348.269 489.509 342.407 484.16C341.584 483.409 340.76 482.654 339.937 481.899C334.902 477.283 329.87 472.669 325.001 469.036C319.343 464.815 313.856 461.881 308.796 461.841L308.795 461.841C303.667 461.812 298.046 464.66 292.232 468.789C287.174 472.38 281.933 476.969 276.702 481.548C275.912 482.239 275.123 482.93 274.334 483.618C268.315 488.866 262.348 493.9 256.699 497.223C251.045 500.55 245.768 502.127 241.105 500.559L241.104 500.559C236.504 499.024 233.321 494.628 230.89 488.609C228.462 482.598 226.809 475.034 225.23 467.261C225.046 466.356 224.863 465.448 224.68 464.54C223.293 457.656 221.899 450.736 220.013 444.738C217.88 437.957 215.103 432.299 210.944 429.205C206.943 426.225 200.822 425.301 193.767 425.292C187.807 425.285 181.135 425.932 174.436 426.582C173.193 426.703 171.95 426.823 170.71 426.94C162.773 427.686 154.978 428.266 148.42 427.605C141.856 426.944 136.595 425.047 133.654 420.9C130.732 416.78 130.689 411.201 132.239 404.791C133.787 398.388 136.909 391.22 140.233 383.97C140.743 382.857 141.258 381.742 141.773 380.628C144.606 374.494 147.43 368.382 149.395 362.731C151.714 356.061 152.86 349.972 151.371 345.211C149.844 340.288 145.429 335.82 139.736 331.584C134.736 327.864 128.713 324.297 122.712 320.743C121.872 320.245 121.031 319.748 120.194 319.25C113.374 315.194 106.775 311.13 101.9 306.835C97.0202 302.534 93.922 298.048 94.0019 293.156L94.0019 293.155C94.0641 288.235 97.3011 283.783 102.316 279.555C107.326 275.331 114.056 271.373 121.004 267.434C121.881 266.937 122.761 266.44 123.642 265.943C129.73 262.506 135.833 259.061 140.92 255.451C146.736 251.323 151.273 246.947 152.924 242.072C154.559 237.283 153.604 231.135 151.491 224.399C149.673 218.603 146.982 212.328 144.29 206.05C143.849 205.024 143.409 203.997 142.972 202.972C139.862 195.671 136.944 188.471 135.562 182.081C134.179 175.684 134.351 170.163 137.338 166.168C140.233 162.317 145.405 160.668 151.89 160.214C158.367 159.761 166.081 160.505 173.982 161.368C174.79 161.456 175.601 161.546 176.413 161.636C183.517 162.421 190.679 163.213 197.105 163.224C204.257 163.235 210.555 162.281 214.864 159.224C219.174 156.167 222.153 150.533 224.501 143.771C226.605 137.713 228.216 130.706 229.815 123.755C230.002 122.939 230.19 122.124 230.378 121.311C232.171 113.563 234.017 106.034 236.59 100.076C239.165 94.1109 242.441 89.7872 247.05 88.3545L247.051 88.3542C251.809 86.8555 257.076 88.5187 262.656 91.9389C268.23 95.3557 274.06 100.491 279.922 105.84C280.744 106.59 281.568 107.345 282.391 108.1C287.426 112.717 292.458 117.331 297.327 120.964C302.985 125.185 308.473 128.119 313.533 128.159L313.533 128.159C318.662 128.188 324.282 125.34 330.097 121.211C335.155 117.62 340.396 113.032 345.626 108.452C346.416 107.761 347.206 107.07 347.994 106.382C354.014 101.134 359.981 96.1001 365.629 92.7768C371.284 89.4498 376.56 87.873 381.224 89.4408L381.224 89.441C385.824 90.9758 389.007 95.3723 391.439 101.391C393.867 107.402 395.519 114.966 397.099 122.739C397.283 123.644 397.465 124.552 397.648 125.46C399.036 132.344 400.43 139.264 402.316 145.262C404.448 152.043 407.225 157.701 411.384 160.795C415.385 163.775 421.511 164.706 428.572 164.722C434.555 164.737 441.258 164.093 447.983 163.447C449.205 163.329 450.427 163.212 451.646 163.098C459.587 162.359 467.384 161.782 473.94 162.438C480.501 163.095 485.752 164.979 488.675 169.1C491.597 173.22 491.64 178.799 490.09 185.209C488.541 191.612 485.419 198.78 482.095 206.03C481.585 207.143 481.07 208.258 480.556 209.372C477.722 215.506 474.899 221.618 472.934 227.269C470.615 233.939 469.468 240.028 470.957 244.789C472.485 249.712 476.9 254.18 482.593 258.416C487.592 262.136 493.615 265.703 499.616 269.257C500.457 269.754 501.297 270.252 502.134 270.75C508.954 274.806 515.554 278.87 520.428 283.165C525.308 287.466 528.407 291.952 528.327 296.844L528.327 296.845C528.264 301.765 525.027 306.217 520.012 310.445C515.003 314.669 508.272 318.627 501.324 322.566C500.448 323.063 499.567 323.56 498.687 324.058C492.599 327.494 486.495 330.94 481.408 334.55C475.592 338.677 471.055 343.053 469.405 347.928Z" fill="white" stroke="#0D1140" stroke-width="0.5"/>
<path d="M388.394 501.884C398.325 498.797 402.037 482.656 405.798 466.302C409.184 451.578 412.61 436.682 420.649 430.98C428.699 425.27 443.904 426.951 458.929 428.613C475.577 430.454 492.003 432.27 498.231 423.982C504.769 415.239 498.015 399.489 491.309 383.849C485.483 370.264 479.693 356.762 482.682 348.009M388.394 501.884L484.236 244.714C487.056 253.804 499.938 261.433 512.784 269.041C527.311 277.645 541.791 286.221 541.617 296.849C541.482 307.548 526.671 315.909 511.849 324.276C498.79 331.648 485.723 339.024 482.682 348.009M388.394 501.884C377.981 505.164 365.35 493.583 352.807 482.082C341.912 472.092 331.084 462.164 321.834 462.091L388.394 501.884ZM482.682 348.009L482.445 347.928M482.682 348.009L482.445 347.928C482.445 347.928 482.445 347.928 482.445 347.928M482.445 347.928C480.81 352.717 481.766 358.866 483.878 365.601C485.697 371.397 488.388 377.672 491.08 383.95C491.52 384.977 491.96 386.003 492.397 387.028C495.507 394.329 498.425 401.529 499.807 407.919C501.19 414.316 501.018 419.836 498.031 423.831C495.137 427.683 489.964 429.332 483.479 429.786C477.002 430.239 469.288 429.495 461.388 428.632C460.579 428.544 459.768 428.454 458.956 428.364C451.852 427.579 444.69 426.787 438.265 426.776C431.112 426.765 424.814 427.719 420.505 430.776C416.195 433.833 413.216 439.467 410.868 446.229C408.764 452.287 407.153 459.294 405.555 466.245C405.367 467.061 405.179 467.876 404.991 468.689C403.199 476.437 401.352 483.966 398.779 489.924C396.204 495.889 392.929 500.213 388.319 501.646L388.319 501.646C383.56 503.145 378.293 501.481 372.714 498.061C367.139 494.644 361.309 489.509 355.447 484.16C354.624 483.409 353.801 482.654 352.978 481.899C347.943 477.283 342.911 472.669 338.042 469.036C332.384 464.815 326.897 461.881 321.836 461.841L321.836 461.841C316.708 461.812 311.087 464.66 305.272 468.789C300.214 472.38 294.973 476.969 289.743 481.548C288.953 482.239 288.163 482.93 287.375 483.618C281.355 488.866 275.388 493.9 269.74 497.223C264.085 500.55 258.809 502.127 254.145 500.559L254.145 500.559C249.545 499.024 246.362 494.628 243.93 488.609C241.502 482.598 239.85 475.034 238.27 467.261C238.087 466.356 237.904 465.448 237.721 464.54C236.334 457.656 234.939 450.736 233.053 444.738C230.921 437.957 228.144 432.299 223.985 429.205C219.984 426.225 213.862 425.301 206.807 425.292C200.848 425.285 194.176 425.932 187.476 426.582C186.234 426.703 184.99 426.823 183.75 426.94C175.814 427.686 168.019 428.266 161.46 427.605C154.896 426.944 149.635 425.047 146.695 420.9C143.772 416.78 143.729 411.201 145.279 404.791C146.828 398.388 149.95 391.22 153.274 383.97C153.784 382.857 154.299 381.742 154.814 380.628C157.647 374.494 160.47 368.382 162.435 362.731C164.754 356.061 165.901 349.972 164.412 345.211C162.885 340.288 158.469 335.82 152.776 331.584C147.777 327.864 141.754 324.297 135.753 320.743C134.912 320.245 134.072 319.748 133.235 319.25C126.415 315.194 119.815 311.13 114.941 306.835C110.061 302.534 106.963 298.048 107.042 293.156L107.042 293.155C107.105 288.235 110.342 283.783 115.357 279.555C120.366 275.331 127.097 271.373 134.045 267.434C134.921 266.937 135.802 266.44 136.682 265.943C142.77 262.506 148.874 259.061 153.961 255.451C159.777 251.323 164.314 246.947 165.964 242.072C167.599 237.283 166.644 231.135 164.531 224.399C162.713 218.603 160.022 212.328 157.33 206.05C156.89 205.024 156.449 203.997 156.013 202.972C152.903 195.671 149.984 188.471 148.603 182.081C147.22 175.684 147.391 170.163 150.379 166.168C153.273 162.317 158.446 160.668 164.931 160.214C171.408 159.761 179.122 160.505 187.022 161.368C187.831 161.456 188.642 161.546 189.454 161.636C196.558 162.421 203.719 163.213 210.145 163.224C217.298 163.235 223.595 162.281 227.905 159.224C232.215 156.167 235.193 150.533 237.542 143.771C239.645 137.713 241.257 130.706 242.855 123.755C243.043 122.939 243.23 122.124 243.418 121.311C245.211 113.563 247.058 106.034 249.63 100.076C252.206 94.1109 255.481 89.7872 260.09 88.3545L260.091 88.3542C264.849 86.8555 270.116 88.5187 275.696 91.9389C281.27 95.3557 287.1 100.491 292.962 105.84C293.785 106.59 294.608 107.345 295.431 108.1C300.466 112.717 305.499 117.331 310.368 120.964C316.026 125.185 321.513 128.119 326.573 128.159L326.574 128.159C331.702 128.188 337.323 125.34 343.137 121.211C348.195 117.62 353.436 113.032 358.667 108.452C359.457 107.761 360.246 107.07 361.035 106.382C367.054 101.134 373.021 96.1001 378.67 92.7768C384.324 89.4498 389.601 87.873 394.264 89.4408L394.265 89.441C398.865 90.9758 402.048 95.3723 404.479 101.391C406.908 107.402 408.56 114.966 410.139 122.739C410.323 123.644 410.506 124.552 410.689 125.46C412.076 132.344 413.47 139.264 415.356 145.262C417.489 152.043 420.266 157.701 424.425 160.795C428.426 163.775 434.552 164.706 441.612 164.722C447.596 164.737 454.298 164.093 461.024 163.447C462.245 163.329 463.468 163.212 464.686 163.098C472.627 162.359 480.425 161.782 486.98 162.438C493.541 163.095 498.793 164.979 501.715 169.1C504.638 173.22 504.68 178.799 503.13 185.209C501.582 191.612 498.46 198.78 495.136 206.03C494.626 207.143 494.111 208.258 493.596 209.372C490.763 215.506 487.939 221.618 485.974 227.269C483.656 233.939 482.509 240.028 483.998 244.789C485.525 249.712 489.941 254.18 495.634 258.416C500.633 262.136 506.656 265.703 512.657 269.257C513.497 269.754 514.338 270.252 515.175 270.75C521.995 274.806 528.594 278.87 533.469 283.165C538.349 287.466 541.447 291.952 541.367 296.844L541.367 296.845C541.305 301.765 538.068 306.217 533.053 310.445C528.043 314.669 521.313 318.627 514.365 322.566C513.488 323.063 512.608 323.56 511.727 324.058C505.639 327.494 499.536 330.94 494.449 334.55C488.633 338.677 484.095 343.053 482.445 347.928Z" fill="white" stroke="#0D1140" stroke-width="0.5"/>
</svg>
