<svg width="278" height="235" viewBox="0 0 278 235" fill="none" xmlns="http://www.w3.org/2000/svg">
<path d="M445.242 307.039L445.242 307.04C444.472 310.845 441.308 313.83 436.776 316.386C432.25 318.939 426.422 321.031 420.421 323.079C419.664 323.337 418.905 323.595 418.144 323.852C412.89 325.634 407.618 327.422 403.115 329.489C397.969 331.85 393.771 334.6 391.756 338.174C389.766 341.683 389.606 346.634 390.261 352.2C390.824 356.991 391.998 362.285 393.171 367.578C393.363 368.444 393.555 369.31 393.744 370.173C395.093 376.327 396.306 382.368 396.441 387.55C396.575 392.739 395.627 397 392.724 399.66C389.916 402.221 385.658 402.746 380.538 402.143C375.425 401.542 369.522 399.825 363.487 397.986C362.869 397.798 362.249 397.608 361.629 397.418C356.205 395.758 350.734 394.083 345.721 393.126C340.142 392.062 335.076 391.874 331.248 393.629C327.421 395.385 324.26 399.352 321.43 404.281C318.894 408.699 316.602 413.928 314.33 419.114C314.063 419.722 313.797 420.331 313.53 420.937C310.989 426.715 308.439 432.311 305.557 436.574C302.671 440.843 299.49 443.716 295.707 444.15L295.706 444.15C291.797 444.615 287.949 442.553 284.105 439.066C280.265 435.582 276.479 430.721 272.696 425.684C272.165 424.977 271.634 424.267 271.103 423.557C267.858 419.213 264.612 414.87 261.348 411.317C257.557 407.189 253.701 404.079 249.743 403.298L249.742 403.298C245.73 402.516 240.913 403.914 235.768 406.277C231.29 408.333 226.523 411.14 221.768 413.94C221.05 414.363 220.333 414.785 219.617 415.205C214.147 418.41 208.755 421.454 203.864 423.21C198.967 424.97 194.638 425.415 191.252 423.515L191.252 423.515C187.911 421.651 186.081 417.772 185.074 412.723C184.068 407.682 183.895 401.543 183.81 395.247C183.8 394.515 183.791 393.78 183.782 393.045C183.716 387.471 183.649 381.865 183.063 376.906C182.4 371.301 181.067 366.464 178.268 363.424C175.575 360.497 170.922 358.871 165.42 357.823C160.771 356.938 155.468 356.458 150.148 355.977C149.161 355.887 148.173 355.798 147.189 355.706C140.889 355.117 134.729 354.42 129.716 352.938C124.699 351.456 120.894 349.206 119.222 345.559C117.56 341.935 118.342 337.595 120.494 332.829C122.644 328.069 126.134 322.942 129.796 317.778C130.358 316.985 130.924 316.192 131.49 315.399C134.604 311.033 137.71 306.68 140.078 302.56C142.87 297.7 144.671 293.107 144.21 289.156C143.743 285.074 140.949 280.927 137.132 276.782C133.78 273.142 129.606 269.469 125.45 265.812C124.868 265.3 124.286 264.788 123.707 264.276C118.986 260.106 114.442 255.966 111.277 251.901C108.108 247.831 106.366 243.891 107.145 240.109L107.145 240.108C107.915 236.304 111.079 233.319 115.611 230.763C120.136 228.21 125.965 226.118 131.965 224.07C132.722 223.812 133.482 223.554 134.242 223.296C139.497 221.514 144.769 219.727 149.271 217.66C154.417 215.299 158.615 212.55 160.63 208.976C162.621 205.466 162.781 200.515 162.126 194.949C161.563 190.157 160.389 184.864 159.216 179.57C159.024 178.705 158.832 177.839 158.643 176.976C157.294 170.822 156.081 164.781 155.946 159.598C155.811 154.41 156.76 150.149 159.662 147.489C162.47 144.928 166.728 144.403 171.849 145.006C176.962 145.607 182.865 147.323 188.9 149.162C189.518 149.351 190.137 149.54 190.757 149.73C196.181 151.391 201.653 153.066 206.666 154.022C212.244 155.087 217.311 155.275 221.138 153.519C224.966 151.764 228.127 147.796 230.957 142.867C233.493 138.45 235.784 133.221 238.057 128.035C238.323 127.427 238.59 126.818 238.856 126.212C241.398 120.433 243.947 114.838 246.83 110.575C249.716 106.306 252.897 103.433 256.68 102.998L256.681 102.998C260.59 102.534 264.438 104.596 268.282 108.083C272.121 111.567 275.908 116.428 279.691 121.465C280.222 122.172 280.753 122.882 281.284 123.592C284.529 127.936 287.775 132.279 291.038 135.832C294.83 139.96 298.686 143.069 302.644 143.851L302.644 143.851C306.657 144.633 311.474 143.235 316.619 140.872C321.096 138.816 325.863 136.009 330.618 133.209C331.336 132.786 332.054 132.364 332.77 131.944C338.24 128.739 343.632 125.695 348.522 123.938C353.42 122.179 357.749 121.734 361.135 123.634L361.135 123.634C364.476 125.498 366.306 129.377 367.313 134.426C368.319 139.467 368.492 145.605 368.577 151.902C368.587 152.634 368.596 153.369 368.605 154.104C368.671 159.678 368.737 165.284 369.324 170.243C369.987 175.847 371.319 180.685 374.118 183.724C376.811 186.651 381.467 188.284 386.972 189.338C391.639 190.233 396.964 190.72 402.305 191.208C403.275 191.297 404.246 191.385 405.213 191.477C411.516 192.071 417.678 192.772 422.688 194.249C427.704 195.727 431.503 197.966 433.165 201.59C434.827 205.214 434.045 209.554 431.892 214.32C429.742 219.08 426.253 224.207 422.591 229.371C422.029 230.164 421.463 230.957 420.897 231.75C417.782 236.116 414.677 240.469 412.309 244.589C409.516 249.449 407.715 254.042 408.176 257.993C408.643 262.075 411.438 266.222 415.255 270.366C418.607 274.007 422.781 277.68 426.936 281.337C427.518 281.849 428.1 282.361 428.679 282.872C433.401 287.043 437.945 291.183 441.11 295.248C444.279 299.318 446.021 303.258 445.242 307.039Z" fill="white" stroke="#0D1140" stroke-width="0.5"/>
<path d="M455.412 308.963L455.412 308.964C454.642 312.768 451.478 315.753 446.946 318.309C442.421 320.862 436.592 322.954 430.592 325.002C429.835 325.26 429.075 325.518 428.315 325.776C423.06 327.558 417.788 329.345 413.286 331.412C408.139 333.773 403.941 336.523 401.927 340.097C399.936 343.606 399.777 348.557 400.431 354.123C400.994 358.915 402.168 364.208 403.342 369.502C403.533 370.367 403.725 371.233 403.915 372.096C405.263 378.25 406.476 384.291 406.611 389.474C406.746 394.662 405.797 398.923 402.895 401.583C400.087 404.144 395.829 404.669 390.708 404.066C385.595 403.465 379.692 401.749 373.657 399.91C373.039 399.721 372.42 399.531 371.8 399.342C366.375 397.681 360.904 396.006 355.892 395.05C350.313 393.985 345.246 393.797 341.419 395.553C337.591 397.308 334.43 401.276 331.6 406.205C329.064 410.622 326.773 415.851 324.501 421.037C324.234 421.646 323.967 422.254 323.701 422.86C321.159 428.639 318.61 434.234 315.728 438.497C312.841 442.766 309.66 445.639 305.877 446.074L305.876 446.074C301.967 446.538 298.119 444.476 294.275 440.989C290.436 437.505 286.649 432.644 282.866 427.607C282.335 426.9 281.805 426.19 281.274 425.48C278.028 421.137 274.782 416.793 271.519 413.24C267.728 409.112 263.871 406.003 259.913 405.221L259.913 405.221C255.9 404.439 251.083 405.837 245.938 408.2C241.461 410.257 236.694 413.064 231.939 415.863C231.221 416.286 230.503 416.708 229.787 417.128C224.317 420.333 218.925 423.377 214.035 425.134C209.137 426.893 204.808 427.338 201.423 425.438L201.422 425.438C198.081 423.574 196.251 419.695 195.244 414.646C194.238 409.605 194.065 403.467 193.98 397.17C193.97 396.438 193.961 395.703 193.953 394.968C193.886 389.394 193.82 383.788 193.233 378.829C192.57 373.225 191.238 368.387 188.439 365.348C185.746 362.42 181.093 360.794 175.59 359.746C170.941 358.861 165.639 358.381 160.318 357.9C159.331 357.811 158.344 357.721 157.36 357.629C151.059 357.04 144.899 356.343 139.887 354.862C134.869 353.379 131.064 351.129 129.392 347.482C127.73 343.858 128.512 339.518 130.665 334.752C132.815 329.992 136.305 324.865 139.967 319.701C140.529 318.908 141.095 318.115 141.66 317.322C144.775 312.956 147.88 308.604 150.248 304.483C153.041 299.623 154.842 295.03 154.381 291.079C153.914 286.997 151.119 282.85 147.303 278.706C143.95 275.065 139.777 271.392 135.621 267.735C135.039 267.223 134.457 266.711 133.878 266.2C129.156 262.029 124.612 257.889 121.448 253.824C118.278 249.754 116.536 245.814 117.315 242.033L117.316 242.032C118.085 238.227 121.249 235.242 125.781 232.686C130.307 230.133 136.135 228.041 142.136 225.993C142.893 225.735 143.653 225.477 144.413 225.22C149.668 223.438 154.939 221.65 159.442 219.584C164.588 217.222 168.786 214.473 170.8 210.899C172.791 207.39 172.951 202.439 172.297 196.872C171.733 192.081 170.56 186.787 169.386 181.494C169.194 180.628 169.002 179.762 168.813 178.899C167.464 172.745 166.251 166.704 166.117 161.522C165.982 156.333 166.93 152.072 169.833 149.413C172.641 146.851 176.899 146.326 182.02 146.929C187.133 147.53 193.035 149.247 199.07 151.086C199.688 151.274 200.307 151.464 200.927 151.653C206.352 153.314 211.823 154.989 216.836 155.946C222.415 157.01 227.481 157.198 231.309 155.443C235.136 153.687 238.298 149.72 241.127 144.79C243.663 140.373 245.955 135.144 248.227 129.959C248.494 129.35 248.76 128.742 249.027 128.135C251.568 122.357 254.118 116.761 257 112.498C259.887 108.229 263.067 105.356 266.85 104.922L266.851 104.922C270.761 104.457 274.608 106.519 278.452 110.006C282.292 113.49 286.078 118.351 289.862 123.388C290.392 124.095 290.923 124.805 291.454 125.516C294.7 129.859 297.945 134.202 301.209 137.755C305 141.883 308.856 144.993 312.814 145.774L312.815 145.774C316.827 146.556 321.644 145.158 326.79 142.795C331.267 140.739 336.034 137.932 340.788 135.132C341.506 134.709 342.224 134.287 342.94 133.867C348.41 130.662 353.802 127.618 358.693 125.862C363.59 124.102 367.919 123.657 371.305 125.557L371.305 125.557C374.646 127.421 376.476 131.3 377.484 136.349C378.49 141.39 378.662 147.529 378.748 153.825C378.757 154.557 378.766 155.292 378.775 156.027C378.841 161.601 378.908 167.207 379.494 172.166C380.157 177.771 381.49 182.608 384.289 185.648C386.982 188.575 391.637 190.207 397.143 191.262C401.81 192.156 407.135 192.643 412.475 193.131C413.445 193.22 414.416 193.309 415.383 193.4C421.686 193.994 427.848 194.695 432.858 196.172C437.875 197.65 441.674 199.889 443.336 203.513C444.997 207.137 444.215 211.477 442.063 216.243C439.913 221.004 436.423 226.13 432.761 231.294C432.199 232.087 431.633 232.88 431.067 233.673C427.953 238.039 424.847 242.392 422.48 246.512C419.687 251.372 417.886 255.965 418.347 259.916C418.814 263.998 421.609 268.145 425.425 272.29C428.777 275.93 432.951 279.603 437.107 283.26C437.689 283.772 438.271 284.284 438.85 284.796C443.571 288.966 448.115 293.106 451.28 297.171C454.449 301.241 456.192 305.181 455.412 308.963Z" fill="white" stroke="#0D1140" stroke-width="0.5"/>
<path d="M465.583 310.887L465.582 310.888C464.813 314.692 461.649 317.677 457.117 320.233C452.591 322.786 446.763 324.878 440.762 326.926C440.005 327.184 439.245 327.442 438.485 327.7C433.23 329.482 427.959 331.27 423.456 333.336C418.31 335.698 414.112 338.447 412.097 342.021C410.107 345.53 409.947 350.481 410.601 356.047C411.165 360.839 412.338 366.132 413.512 371.426C413.704 372.291 413.896 373.157 414.085 374.021C415.434 380.174 416.647 386.216 416.781 391.398C416.916 396.587 415.968 400.847 413.065 403.507C410.257 406.068 405.999 406.593 400.878 405.991C395.765 405.389 389.863 403.673 383.828 401.834C383.21 401.645 382.59 401.456 381.97 401.266C376.546 399.605 371.075 397.93 366.062 396.974C360.483 395.909 355.417 395.722 351.589 397.477C347.762 399.232 344.6 403.2 341.771 408.129C339.235 412.546 336.943 417.776 334.671 422.961C334.404 423.57 334.138 424.178 333.871 424.784C331.33 430.563 328.78 436.159 325.898 440.421C323.011 444.691 319.831 447.563 316.048 447.998L316.047 447.998C312.137 448.462 308.29 446.401 304.446 442.913C300.606 439.43 296.82 434.568 293.036 429.531C292.506 428.825 291.975 428.114 291.444 427.404C288.199 423.061 284.953 418.717 281.689 415.164C277.898 411.036 274.042 407.927 270.084 407.146L270.083 407.146C266.071 406.363 261.254 407.762 256.108 410.125C251.631 412.181 246.864 414.988 242.109 417.788C241.391 418.21 240.674 418.633 239.958 419.052C234.488 422.258 229.096 425.301 224.205 427.058C219.308 428.817 214.979 429.262 211.593 427.363L211.593 427.362C208.252 425.498 206.422 421.619 205.414 416.57C204.408 411.529 204.236 405.391 204.15 399.095C204.14 398.362 204.132 397.627 204.123 396.892C204.057 391.318 203.99 385.712 203.404 380.754C202.741 375.149 201.408 370.312 198.609 367.272C195.916 364.345 191.263 362.718 185.761 361.67C181.111 360.785 175.809 360.305 170.488 359.824C169.502 359.735 168.514 359.646 167.53 359.554C161.23 358.965 155.069 358.267 150.057 356.786C145.039 355.303 141.235 353.053 139.562 349.406C137.901 345.782 138.683 341.443 140.835 336.677C142.985 331.916 146.475 326.789 150.137 321.625C150.699 320.833 151.265 320.039 151.831 319.246C154.945 314.881 158.051 310.528 160.418 306.407C163.211 301.547 165.012 296.954 164.551 293.004C164.084 288.921 161.289 284.774 157.473 280.63C154.121 276.989 149.947 273.316 145.791 269.66C145.209 269.147 144.627 268.635 144.048 268.124C139.327 263.954 134.783 259.813 131.618 255.749C128.449 251.678 126.706 247.738 127.486 243.957L127.486 243.956C128.256 240.151 131.42 237.167 135.952 234.61C140.477 232.058 146.306 229.965 152.306 227.918C153.063 227.659 153.823 227.402 154.583 227.144C159.838 225.362 165.11 223.574 169.612 221.508C174.758 219.146 178.956 216.397 180.971 212.823C182.961 209.314 183.121 204.363 182.467 198.796C181.904 194.005 180.73 188.711 179.556 183.418C179.365 182.552 179.173 181.687 178.983 180.823C177.635 174.67 176.422 168.628 176.287 163.446C176.152 158.257 177.101 153.996 180.003 151.337C182.811 148.776 187.069 148.251 192.19 148.853C197.303 149.455 203.206 151.171 209.241 153.01C209.859 153.198 210.478 153.388 211.098 153.578C216.522 155.238 221.993 156.913 227.006 157.87C232.585 158.935 237.652 159.122 241.479 157.367C245.307 155.611 248.468 151.644 251.298 146.715C253.834 142.298 256.125 137.068 258.397 131.883C258.664 131.274 258.931 130.666 259.197 130.06C261.739 124.281 264.288 118.685 267.17 114.422C270.057 110.153 273.238 107.281 277.021 106.846L277.022 106.846C280.931 106.382 284.779 108.443 288.623 111.931C292.462 115.414 296.249 120.275 300.032 125.312C300.563 126.019 301.094 126.73 301.624 127.44C304.87 131.783 308.116 136.126 311.379 139.68C315.17 143.807 319.027 146.917 322.985 147.698L322.985 147.698C326.998 148.481 331.815 147.082 336.96 144.719C341.437 142.663 346.204 139.856 350.959 137.056C351.677 136.634 352.394 136.211 353.111 135.791C358.58 132.586 363.973 129.543 368.863 127.786C373.761 126.027 378.09 125.582 381.475 127.481L381.476 127.481C384.817 129.345 386.646 133.224 387.654 138.273C388.66 143.315 388.833 149.453 388.918 155.749C388.928 156.482 388.937 157.216 388.945 157.952C389.012 163.525 389.078 169.131 389.665 174.09C390.328 179.695 391.66 184.532 394.459 187.572C397.152 190.499 401.808 192.131 407.313 193.186C411.98 194.08 417.305 194.567 422.646 195.055C423.616 195.144 424.586 195.233 425.554 195.324C431.857 195.919 438.018 196.619 443.029 198.096C448.045 199.575 451.844 201.813 453.506 205.437C455.168 209.061 454.386 213.401 452.233 218.167C450.083 222.928 446.593 228.054 442.931 233.219C442.369 234.011 441.803 234.804 441.238 235.597C438.123 239.963 435.018 244.316 432.65 248.436C429.857 253.297 428.056 257.89 428.517 261.84C428.984 265.923 431.779 270.069 435.595 274.214C438.948 277.855 443.121 281.527 447.277 285.184C447.859 285.696 448.441 286.208 449.02 286.72C453.742 290.89 458.286 295.03 461.45 299.095C464.62 303.166 466.362 307.106 465.583 310.887Z" fill="white" stroke="#0D1140" stroke-width="0.5"/>
</svg>
