<svg width="420" height="520" viewBox="0 0 420 520" fill="none" xmlns="http://www.w3.org/2000/svg">
<path d="M-442.741 68.6613L-442.741 68.6595C-444.119 61.2947 -440.619 53.6604 -434.356 45.7981C-428.101 37.9471 -419.18 29.9764 -409.916 21.9591C-408.748 20.9478 -407.574 19.9358 -406.399 18.9233C-398.279 11.9226 -390.132 4.89891 -383.564 -2.06649C-376.058 -10.027 -370.529 -17.9975 -369.51 -25.8653C-368.488 -33.5989 -371.793 -42.5861 -377 -52.0817C-381.482 -60.2564 -387.422 -68.8881 -393.36 -77.5184C-394.331 -78.9297 -395.302 -80.3409 -396.267 -81.75C-403.143 -91.7942 -409.694 -101.734 -413.69 -110.917C-417.692 -120.111 -419.079 -128.424 -415.812 -135.284C-412.642 -141.9 -405.403 -145.925 -395.795 -148.558C-386.203 -151.186 -374.388 -152.39 -362.246 -153.47C-361.002 -153.581 -359.755 -153.69 -358.507 -153.8C-347.588 -154.757 -336.574 -155.723 -326.901 -157.643C-316.137 -159.78 -306.922 -163.117 -301.335 -169.039C-295.747 -174.962 -292.961 -184.364 -291.465 -195.244C-290.124 -204.995 -289.81 -216.024 -289.499 -226.958C-289.463 -228.242 -289.426 -229.524 -289.388 -230.803C-289.025 -242.995 -288.514 -254.864 -286.442 -264.586C-284.366 -274.324 -280.753 -281.768 -274.299 -285.285L-274.298 -285.286C-267.639 -288.947 -259.259 -288.046 -249.847 -284.586C-240.447 -281.13 -230.143 -275.169 -219.716 -268.889C-218.253 -268.008 -216.787 -267.12 -215.322 -266.233C-206.361 -260.806 -197.398 -255.379 -188.977 -251.38C-179.194 -246.734 -170.029 -243.958 -162.368 -245.429L-162.367 -245.429C-154.608 -246.937 -146.99 -252.937 -139.487 -260.899C-132.958 -267.827 -126.453 -276.311 -119.966 -284.772C-118.987 -286.049 -118.008 -287.326 -117.029 -288.597C-109.556 -298.303 -102.104 -307.661 -94.6198 -314.351C-87.1243 -321.051 -79.6977 -324.981 -72.2647 -324.034L-72.2635 -324.034C-64.9366 -323.117 -58.8511 -317.502 -53.3878 -309.19C-47.9328 -300.891 -43.1748 -290.024 -38.4585 -278.808C-37.9097 -277.503 -37.3615 -276.193 -36.8128 -274.883C-32.6545 -264.948 -28.4716 -254.955 -23.8264 -246.498C-18.5761 -236.939 -12.6811 -229.236 -5.45979 -225.818C1.49099 -222.525 11.0085 -222.985 21.6237 -225.097C30.5936 -226.881 40.4392 -229.866 50.3176 -232.86C52.1499 -233.416 53.9833 -233.971 55.8125 -234.52C67.5238 -238.032 79.0619 -241.247 89.1108 -242.227C99.1713 -243.208 107.61 -241.935 113.243 -236.621C118.841 -231.339 120.586 -223.006 120.185 -212.911C119.785 -202.828 117.251 -191.118 114.435 -179.214C114.003 -177.387 113.564 -175.556 113.126 -173.725C110.711 -163.649 108.304 -153.6 107.05 -144.503C105.57 -133.774 105.673 -124.238 109.365 -117.491C113.162 -110.512 121.178 -105.108 131.019 -100.451C139.663 -96.3592 149.801 -92.806 159.895 -89.2683C161.309 -88.7727 162.722 -88.2774 164.13 -87.781C175.609 -83.734 186.748 -79.6125 195.361 -74.6268C203.986 -69.6339 209.957 -63.8435 211.301 -56.5135L211.301 -56.5116C212.679 -49.1468 209.179 -41.5126 202.915 -33.6502C196.661 -25.7993 187.739 -17.8285 178.476 -9.81123C177.307 -8.79982 176.133 -7.78768 174.959 -6.77507C166.838 0.225527 158.691 7.24905 152.124 14.2143C144.618 22.1747 139.088 30.1453 138.07 38.0131C137.048 45.7466 140.353 54.7341 145.559 64.2295C150.042 72.404 155.981 81.0356 161.92 89.6658C162.891 91.0771 163.862 92.4885 164.827 93.8978C171.703 103.942 178.253 113.882 182.25 123.065C186.252 132.259 187.639 140.572 184.371 147.433C181.201 154.048 173.962 158.073 164.355 160.705C154.762 163.334 142.947 164.538 130.805 165.618C129.562 165.729 128.316 165.838 127.068 165.948C116.149 166.905 105.134 167.871 95.4606 169.791C84.6964 171.928 75.4815 175.265 69.8944 181.187C64.307 187.11 61.5203 196.512 60.0244 207.392C58.6838 217.142 58.3699 228.171 58.0588 239.105C58.0222 240.389 57.9858 241.671 57.9476 242.95C57.5843 255.143 57.0737 267.012 55.0015 276.734C52.9259 286.472 49.3122 293.916 42.8588 297.433L42.8571 297.433C36.1982 301.095 27.8184 300.194 18.4067 296.734C9.00698 293.278 -1.29732 287.317 -11.7245 281.037C-13.1874 280.156 -14.6527 279.268 -16.118 278.381C-25.0792 272.954 -34.0418 267.527 -42.4634 263.528C-52.2462 258.882 -61.4113 256.106 -69.0724 257.576L-69.0736 257.577C-76.8328 259.085 -84.4501 265.085 -91.9534 273.047C-98.4826 279.975 -104.987 288.458 -111.474 296.919C-112.453 298.197 -113.432 299.474 -114.411 300.745C-121.885 310.45 -129.336 319.809 -136.821 326.499C-144.316 333.199 -151.743 337.129 -159.176 336.182L-159.177 336.182C-166.504 335.265 -172.589 329.65 -178.053 321.338C-183.508 313.039 -188.266 302.172 -192.982 290.956C-193.531 289.651 -194.079 288.341 -194.628 287.03C-198.786 277.096 -202.969 267.103 -207.614 258.645C-212.864 249.087 -218.759 241.384 -225.981 237.966C-232.931 234.673 -242.457 235.125 -253.083 237.226C-262.092 239.008 -271.983 241.995 -281.902 244.992C-283.704 245.536 -285.506 246.08 -287.305 246.618C-299.025 250.122 -310.568 253.333 -320.61 254.319C-330.665 255.306 -339.086 254.049 -344.684 248.768C-350.282 243.487 -352.026 235.154 -351.626 225.059C-351.225 214.975 -348.691 203.265 -345.875 191.361C-345.443 189.535 -345.004 187.703 -344.566 185.873C-342.152 175.796 -339.744 165.748 -338.49 156.651C-337.011 145.921 -337.113 136.385 -340.805 129.637C-344.604 122.659 -352.619 117.256 -362.459 112.599C-371.104 108.507 -381.242 104.954 -391.336 101.416C-392.75 100.921 -394.163 100.425 -395.571 99.9289C-407.05 95.8819 -418.188 91.7604 -426.801 86.7747C-435.426 81.7818 -441.397 75.9913 -442.741 68.6613Z" fill="white" stroke="#0D1140"/>
<path d="M-462.352 72.5874L-462.352 72.5856C-463.73 65.2208 -460.23 57.5866 -453.966 49.7242C-447.712 41.8733 -438.79 33.9025 -429.527 25.8852C-428.359 24.8739 -427.185 23.8619 -426.01 22.8495C-417.89 15.8487 -409.743 8.82505 -403.175 1.85965C-395.669 -6.10082 -390.14 -14.0714 -389.121 -21.9392C-388.099 -29.6727 -391.404 -38.66 -396.61 -48.1556C-401.093 -56.3302 -407.032 -64.962 -412.971 -73.5923C-413.942 -75.0035 -414.913 -76.4147 -415.878 -77.8238C-422.754 -87.8681 -429.305 -97.8081 -433.301 -106.991C-437.303 -116.185 -438.69 -124.498 -435.423 -131.358C-432.253 -137.974 -425.013 -141.999 -415.406 -144.631C-405.813 -147.26 -393.999 -148.464 -381.857 -149.544C-380.613 -149.655 -379.366 -149.764 -378.118 -149.874C-367.199 -150.831 -356.185 -151.797 -346.512 -153.717C-335.748 -155.854 -326.533 -159.191 -320.946 -165.113C-315.358 -171.036 -312.572 -180.438 -311.076 -191.318C-309.735 -201.069 -309.421 -212.098 -309.11 -223.032C-309.073 -224.315 -309.037 -225.598 -308.999 -226.876C-308.636 -239.069 -308.125 -250.938 -306.053 -260.66C-303.977 -270.398 -300.363 -277.842 -293.91 -281.359L-293.908 -281.359C-287.25 -285.021 -278.87 -284.12 -269.458 -280.66C-260.058 -277.204 -249.754 -271.243 -239.327 -264.963C-237.864 -264.082 -236.398 -263.194 -234.933 -262.307C-225.972 -256.88 -217.009 -251.453 -208.588 -247.454C-198.805 -242.808 -189.64 -240.032 -181.979 -241.502L-181.978 -241.503C-174.218 -243.011 -166.601 -249.011 -159.098 -256.973C-152.569 -263.901 -146.064 -272.385 -139.577 -280.846C-138.598 -282.123 -137.619 -283.4 -136.64 -284.671C-129.167 -294.376 -121.715 -303.735 -114.231 -310.425C-106.735 -317.124 -99.3085 -321.055 -91.8755 -320.108L-91.8744 -320.108C-84.5475 -319.191 -78.462 -313.576 -72.9986 -305.264C-67.5436 -296.965 -62.7856 -286.098 -58.0693 -274.882C-57.5205 -273.577 -56.9723 -272.267 -56.4236 -270.956C-52.2653 -261.022 -48.0825 -251.029 -43.4373 -242.571C-38.187 -233.013 -32.2919 -225.31 -25.0706 -221.892C-18.1198 -218.599 -8.60231 -219.059 2.01291 -221.171C10.9828 -222.955 20.8283 -225.94 30.7067 -228.934C32.539 -229.489 34.3725 -230.045 36.2017 -230.594C47.913 -234.106 59.4511 -237.321 69.5 -238.301C79.5604 -239.282 87.9993 -238.009 93.6327 -232.694C99.2305 -227.413 100.975 -219.08 100.574 -208.985C100.174 -198.902 97.64 -187.192 94.8241 -175.287C94.392 -173.461 93.9533 -171.63 93.5148 -169.799C91.1005 -159.722 88.6931 -149.674 87.4389 -140.577C85.9595 -129.848 86.0621 -120.312 89.7537 -113.564C93.5516 -106.586 101.568 -101.182 111.408 -96.5246C120.052 -92.4331 130.19 -88.8798 140.284 -85.3422C141.698 -84.8466 143.111 -84.3513 144.519 -83.8549C155.998 -79.8079 167.137 -75.6864 175.75 -70.7007C184.375 -65.7078 190.346 -59.9173 191.69 -52.5873L191.69 -52.5855C193.068 -45.2207 189.568 -37.5864 183.304 -29.724C177.05 -21.8731 168.128 -13.9024 158.865 -5.88508C157.696 -4.87367 156.522 -3.86154 155.348 -2.84892C147.228 4.15167 139.081 11.1752 132.513 18.1405C125.007 26.1009 119.477 34.0715 118.459 41.9393C117.437 49.6727 120.742 58.6602 125.948 68.1556C130.431 76.3302 136.37 84.9617 142.309 93.5919C143.28 95.0033 144.251 96.4146 145.216 97.824C152.092 107.868 158.642 117.808 162.639 126.991C166.641 136.185 168.028 144.498 164.76 151.359C161.59 157.974 154.351 161.999 144.744 164.632C135.151 167.26 123.337 168.464 111.194 169.544C109.951 169.655 108.705 169.764 107.457 169.874C96.538 170.831 85.523 171.797 75.8497 173.717C65.0856 175.854 55.8707 179.191 50.2836 185.113C44.6961 191.036 41.9095 200.438 40.4135 211.318C39.0729 221.068 38.7591 232.097 38.4479 243.031C38.4114 244.315 38.3749 245.598 38.3368 246.877C37.9734 259.069 37.4629 270.938 35.3906 280.66C33.3151 290.398 29.7013 297.842 23.2479 301.359L23.2463 301.36C16.5874 305.021 8.20753 304.12 -1.20413 300.66C-10.6039 297.204 -20.9082 291.243 -31.3354 284.963C-32.7982 284.082 -34.2635 283.194 -35.7289 282.307C-44.69 276.881 -53.6527 271.453 -62.0743 267.454C-71.8571 262.808 -81.0221 260.032 -88.6833 261.503L-88.6844 261.503C-96.4436 263.011 -104.061 269.011 -111.564 276.973C-118.093 283.901 -124.598 292.385 -131.085 300.845C-132.064 302.123 -133.043 303.4 -134.022 304.671C-141.496 314.377 -148.947 323.735 -156.431 330.425C-163.927 337.125 -171.354 341.055 -178.786 340.108L-178.788 340.108C-186.115 339.191 -192.2 333.576 -197.663 325.264C-203.118 316.965 -207.876 306.098 -212.593 294.882C-213.142 293.577 -213.69 292.267 -214.238 290.957C-218.397 281.022 -222.58 271.029 -227.225 262.572C-232.475 253.013 -238.37 245.31 -245.591 241.892C-252.542 238.599 -262.068 239.051 -272.694 241.152C-281.702 242.934 -291.593 245.921 -301.513 248.918C-303.314 249.462 -305.117 250.007 -306.916 250.544C-318.636 254.048 -330.179 257.259 -340.221 258.245C-350.276 259.232 -358.697 257.976 -364.295 252.694C-369.893 247.413 -371.637 239.08 -371.236 228.985C-370.836 218.902 -368.302 207.192 -365.486 195.288C-365.054 193.461 -364.615 191.629 -364.177 189.799C-361.763 179.722 -359.355 169.674 -358.101 160.577C-356.621 149.847 -356.724 140.311 -360.416 133.564C-364.214 126.585 -372.23 121.182 -382.07 116.525C-390.714 112.433 -400.853 108.88 -410.946 105.342C-412.36 104.847 -413.774 104.351 -415.182 103.855C-426.66 99.8081 -437.799 95.6865 -446.412 90.7008C-455.037 85.7079 -461.008 79.9175 -462.352 72.5874Z" fill="white" stroke="#0D1140"/>
<path d="M-481.963 76.5136L-481.963 76.5118C-483.341 69.147 -479.841 61.5127 -473.577 53.6504C-467.323 45.7994 -458.401 37.8287 -449.138 29.8114C-447.969 28.8001 -446.796 27.7881 -445.621 26.7756C-437.501 19.7749 -429.354 12.7512 -422.786 5.7858C-415.28 -2.17467 -409.75 -10.1452 -408.732 -18.013C-407.71 -25.7466 -411.014 -34.7338 -416.221 -44.2294C-420.704 -52.4041 -426.643 -61.0358 -432.582 -69.6661C-433.553 -71.0774 -434.524 -72.4886 -435.489 -73.8977C-442.365 -83.9419 -448.915 -93.882 -452.912 -103.065C-456.914 -112.259 -458.301 -120.572 -455.034 -127.432C-451.864 -134.048 -444.624 -138.073 -435.017 -140.705C-425.424 -143.334 -413.609 -144.538 -401.467 -145.618C-400.224 -145.729 -398.977 -145.838 -397.729 -145.948C-386.81 -146.905 -375.796 -147.871 -366.123 -149.791C-355.358 -151.928 -346.144 -155.265 -340.556 -161.187C-334.969 -167.109 -332.182 -176.512 -330.686 -187.392C-329.346 -197.142 -329.032 -208.171 -328.721 -219.106C-328.684 -220.389 -328.648 -221.672 -328.61 -222.95C-328.246 -235.143 -327.736 -247.011 -325.664 -256.734C-323.588 -266.472 -319.974 -273.916 -313.521 -277.432L-313.519 -277.433C-306.86 -281.095 -298.48 -280.194 -289.069 -276.733C-279.669 -273.278 -269.365 -267.317 -258.938 -261.037C-257.474 -260.155 -256.009 -259.268 -254.544 -258.381C-245.583 -252.954 -236.62 -247.527 -228.199 -243.528C-218.416 -238.882 -209.251 -236.105 -201.59 -237.576L-201.588 -237.576C-193.829 -239.085 -186.212 -245.085 -178.709 -253.047C-172.179 -259.975 -165.675 -268.459 -159.188 -276.919C-158.208 -278.197 -157.229 -279.474 -156.251 -280.745C-148.777 -290.45 -141.326 -299.809 -133.841 -306.499C-126.346 -313.198 -118.919 -317.129 -111.486 -316.182L-111.485 -316.182C-104.158 -315.265 -98.0728 -309.649 -92.6095 -301.338C-87.1545 -293.039 -82.3964 -282.171 -77.6802 -270.956C-77.1314 -269.651 -76.5831 -268.341 -76.0345 -267.03C-71.8762 -257.096 -67.6933 -247.102 -63.0481 -238.645C-57.7978 -229.086 -51.9028 -221.384 -44.6815 -217.966C-37.7307 -214.673 -28.2131 -215.133 -17.5979 -217.245C-8.62804 -219.029 1.21748 -222.013 11.0959 -225.008C12.9282 -225.563 14.7616 -226.119 16.5908 -226.668C28.3021 -230.179 39.8403 -233.394 49.8892 -234.374C59.9496 -235.356 68.3884 -234.083 74.0218 -228.768C79.6197 -223.487 81.3642 -215.154 80.9635 -205.059C80.5633 -194.975 78.0292 -183.265 75.2133 -171.361C74.7812 -169.535 74.3424 -167.703 73.9039 -165.873C71.4897 -155.796 69.0823 -145.748 67.828 -136.651C66.3486 -125.921 66.4513 -116.386 70.1428 -109.638C73.9407 -102.66 81.9567 -97.256 91.7971 -92.5984C100.441 -88.5069 110.58 -84.9537 120.673 -81.416C122.087 -80.9204 123.501 -80.4251 124.909 -79.9287C136.388 -75.8817 147.526 -71.7602 156.139 -66.7745C164.764 -61.7816 170.735 -55.9912 172.079 -48.6612L172.079 -48.6594C173.457 -41.2945 169.957 -33.6603 163.694 -25.7979C157.439 -17.947 148.518 -9.97625 139.254 -1.95893C138.086 -0.947523 136.912 0.0646113 135.737 1.07723C127.617 8.07782 119.47 15.1013 112.902 22.0666C105.396 30.027 99.8666 37.9976 98.8482 45.8654C97.8261 53.5989 101.131 62.5864 106.337 72.0818C110.82 80.2563 116.759 88.8879 122.698 97.518C123.669 98.9294 124.64 100.341 125.605 101.75C132.481 111.794 139.032 121.734 143.028 130.917C147.03 140.111 148.417 148.424 145.149 155.285C141.98 161.901 134.74 165.925 125.133 168.558C115.541 171.186 103.726 172.39 91.5837 173.471C90.3405 173.581 89.094 173.69 87.8462 173.8C76.9271 174.757 65.9122 175.723 56.2389 177.643C45.4747 179.78 36.2598 183.117 30.6727 189.039C25.0853 194.962 22.2986 204.364 20.8027 215.244C19.4621 224.995 19.1483 236.023 18.8371 246.957C18.8006 248.241 18.7641 249.524 18.726 250.803C18.3626 262.995 17.852 274.864 15.7798 284.586C13.7043 294.324 10.0905 301.768 3.63708 305.285L3.63544 305.286C-3.02344 308.947 -11.4033 308.046 -20.815 304.586C-30.2147 301.13 -40.519 295.169 -50.9462 288.889C-52.4091 288.008 -53.8744 287.121 -55.3397 286.233C-64.3008 280.807 -73.2635 275.379 -81.6851 271.38C-91.4679 266.734 -100.633 263.958 -108.294 265.429L-108.295 265.429C-116.054 266.937 -123.672 272.937 -131.175 280.899C-137.704 287.827 -144.209 296.311 -150.696 304.772C-151.675 306.049 -152.654 307.326 -153.633 308.597C-161.106 318.303 -168.558 327.661 -176.042 334.351C-183.538 341.051 -190.964 344.981 -198.397 344.034L-198.398 344.034C-205.725 343.118 -211.811 337.502 -217.274 329.19C-222.729 320.891 -227.487 310.024 -232.204 298.808C-232.752 297.503 -233.301 296.194 -233.849 294.883C-238.008 284.948 -242.19 274.955 -246.836 266.498C-252.086 256.939 -257.981 249.236 -265.202 245.818C-272.153 242.525 -281.679 242.977 -292.305 245.079C-301.313 246.86 -311.204 249.848 -321.123 252.844C-322.925 253.388 -324.728 253.933 -326.527 254.47C-338.247 257.974 -349.789 261.185 -359.832 262.171C-369.887 263.159 -378.308 261.902 -383.906 256.621C-389.503 251.339 -391.248 243.006 -390.847 232.911C-390.447 222.828 -387.913 211.118 -385.097 199.214C-384.665 197.387 -384.226 195.555 -383.788 193.725C-381.373 183.648 -378.966 173.6 -377.712 164.504C-376.232 153.773 -376.335 144.237 -380.027 137.49C-383.825 130.512 -391.841 125.108 -401.681 120.451C-410.325 116.359 -420.463 112.806 -430.557 109.268C-431.971 108.773 -433.384 108.278 -434.792 107.781C-446.271 103.734 -457.41 99.6127 -466.023 94.627C-474.648 89.6341 -480.619 83.8436 -481.963 76.5136Z" fill="white" stroke="#0D1140"/>
</svg>
