<svg width="688" height="405" viewBox="0 0 688 405" fill="none" xmlns="http://www.w3.org/2000/svg">
<path d="M810.602 467.664L810.602 467.666C810.505 475.372 805.433 482.363 797.534 489.024C789.646 495.675 779.045 501.908 768.093 508.118C766.711 508.902 765.324 509.685 763.936 510.469C754.34 515.885 744.713 521.319 736.69 527.013C727.52 533.521 720.342 540.436 717.73 548.155C715.141 555.738 716.657 565.458 719.988 576.077C722.856 585.219 727.1 595.115 731.343 605.011C732.037 606.629 732.731 608.248 733.419 609.863C738.322 621.372 742.918 632.712 745.094 642.774C747.272 652.848 746.994 661.511 742.313 667.77C737.78 673.803 729.667 676.399 719.452 677.114C709.254 677.827 697.103 676.657 684.649 675.296C683.373 675.156 682.095 675.015 680.816 674.874C669.618 673.635 658.324 672.386 648.189 672.37C636.91 672.351 626.954 673.855 620.132 678.694C613.31 683.532 608.606 692.442 604.904 703.104C601.586 712.659 599.044 723.71 596.525 734.666C596.229 735.953 595.933 737.238 595.637 738.519C592.811 750.733 589.902 762.592 585.851 771.973C581.794 781.369 576.648 788.146 569.429 790.39L569.427 790.391C561.972 792.739 553.704 790.138 544.917 784.751C536.14 779.371 526.957 771.284 517.716 762.851C516.419 761.668 515.122 760.478 513.824 759.288C505.888 752.012 497.951 744.734 490.272 739.005C481.35 732.35 472.677 727.705 464.665 727.642L464.664 727.642C456.544 727.596 447.66 732.104 438.493 738.613C430.516 744.278 422.25 751.514 414.005 758.732C412.76 759.822 411.516 760.911 410.273 761.995C400.783 770.268 391.385 778.196 382.491 783.429C373.585 788.669 365.303 791.135 357.997 788.679L357.996 788.678C350.791 786.274 345.789 779.382 341.96 769.903C338.136 760.437 335.534 748.524 333.044 736.27C332.754 734.844 332.466 733.413 332.177 731.982C329.991 721.131 327.792 710.217 324.817 700.757C321.455 690.065 317.069 681.117 310.485 676.219C304.148 671.5 294.468 670.044 283.345 670.03C273.945 670.018 263.422 671.04 252.862 672.064C250.904 672.254 248.944 672.445 246.99 672.628C234.479 673.805 222.202 674.717 211.875 673.677C201.538 672.636 193.285 669.65 188.676 663.152C184.097 656.696 184.021 647.94 186.462 637.846C188.9 627.764 193.817 616.473 199.057 605.045C199.861 603.291 200.672 601.534 201.483 599.778C205.949 590.11 210.403 580.47 213.502 571.556C217.157 561.042 218.977 551.415 216.619 543.875C214.201 536.08 207.216 529.019 198.239 522.34C190.354 516.473 180.854 510.848 171.396 505.246C170.071 504.461 168.747 503.677 167.428 502.892C156.676 496.498 146.282 490.097 138.606 483.333C130.921 476.561 126.067 469.517 126.192 461.853L126.193 461.851C126.29 454.144 131.362 447.153 139.261 440.493C147.149 433.842 157.749 427.609 168.702 421.398C170.084 420.615 171.471 419.831 172.859 419.048C182.455 413.631 192.082 408.197 200.105 402.503C209.275 395.996 216.453 389.081 219.065 381.362C221.654 373.779 220.138 364.059 216.807 353.439C213.939 344.297 209.695 334.401 205.451 324.505C204.757 322.887 204.064 321.269 203.376 319.654C198.473 308.145 193.876 296.804 191.701 286.742C189.523 276.668 189.801 268.005 194.482 261.746C199.015 255.713 207.128 253.118 217.342 252.403C227.541 251.689 239.692 252.86 252.146 254.221C253.421 254.36 254.7 254.502 255.98 254.643C267.177 255.881 278.471 257.13 288.606 257.147C299.884 257.165 309.841 255.661 316.662 250.823C323.484 245.984 328.188 237.075 331.891 226.412C335.209 216.857 337.75 205.807 340.27 194.851C340.566 193.564 340.861 192.279 341.158 190.998C343.984 178.784 346.893 166.925 350.944 157.544C355 148.148 360.146 141.37 367.366 139.126L367.367 139.126C374.823 136.777 383.09 139.379 391.878 144.765C400.655 150.145 409.838 158.233 419.079 166.665C420.375 167.849 421.673 169.039 422.971 170.229C430.907 177.505 438.844 184.782 446.523 190.511C455.444 197.167 464.117 201.811 472.13 201.875L472.131 201.875C480.25 201.921 489.134 197.413 498.302 190.903C506.279 185.239 514.545 178.002 522.789 170.785C524.034 169.695 525.279 168.605 526.522 167.522C536.011 159.249 545.41 151.32 554.303 146.087C563.21 140.847 571.492 138.382 578.798 140.838L578.799 140.838C586.004 143.242 591.005 150.134 594.835 159.614C598.658 169.079 601.261 180.992 603.751 193.247C604.041 194.673 604.329 196.103 604.617 197.535C606.804 208.386 609.003 219.3 611.977 228.759C615.34 239.451 619.726 248.399 626.31 253.298C632.646 258.016 642.333 259.483 653.466 259.509C662.903 259.531 673.473 258.516 684.074 257.498C686 257.313 687.926 257.128 689.847 256.949C702.365 255.782 714.647 254.875 724.968 255.908C735.301 256.942 743.539 259.908 748.119 266.364C752.698 272.821 752.774 281.576 750.333 291.67C747.895 301.753 742.978 313.043 737.738 324.472C736.934 326.226 736.122 327.983 735.311 329.739C730.845 339.407 726.392 349.047 723.293 357.961C719.637 368.475 717.818 378.103 720.176 385.643C722.594 393.437 729.579 400.497 738.555 407.176C746.44 413.043 755.939 418.668 765.398 424.27C766.723 425.055 768.048 425.839 769.367 426.624C780.119 433.018 790.513 439.42 798.188 446.183C805.874 452.956 810.727 460 810.602 467.664Z" fill="white" stroke="#0D1140"/>
<path d="M831.158 467.664L831.158 467.666C831.06 475.372 825.989 482.363 818.089 489.024C810.201 495.675 799.601 501.908 788.648 508.118C787.266 508.902 785.879 509.685 784.491 510.469C774.895 515.885 765.268 521.319 757.245 527.013C748.075 533.521 740.897 540.436 738.285 548.155C735.696 555.738 737.212 565.458 740.543 576.077C743.411 585.219 747.655 595.115 751.899 605.011C752.593 606.629 753.287 608.248 753.975 609.863C758.877 621.372 763.474 632.712 765.649 642.774C767.827 652.848 767.549 661.511 762.869 667.77C758.336 673.803 750.222 676.399 740.008 677.114C729.809 677.827 717.658 676.657 705.204 675.296C703.929 675.156 702.651 675.015 701.371 674.874C690.174 673.635 678.879 672.386 668.744 672.37C657.466 672.351 647.51 673.855 640.688 678.694C633.866 683.532 629.162 692.442 625.459 703.104C622.141 712.659 619.6 723.71 617.08 734.666C616.784 735.953 616.489 737.238 616.192 738.519C613.366 750.733 610.457 762.592 606.406 771.973C602.35 781.369 597.204 788.146 589.985 790.39L589.983 790.391C582.528 792.739 574.26 790.138 565.472 784.751C556.695 779.371 547.513 771.284 538.271 762.851C536.975 761.668 535.677 760.478 534.379 759.288C526.443 752.012 518.507 744.734 510.827 739.005C501.906 732.35 493.233 727.705 485.22 727.642L485.219 727.642C477.1 727.596 468.216 732.104 459.048 738.613C451.071 744.278 442.805 751.514 434.561 758.732C433.316 759.822 432.071 760.911 430.828 761.995C421.339 770.268 411.94 778.196 403.047 783.429C394.14 788.669 385.858 791.135 378.553 788.679L378.551 788.678C371.346 786.274 366.345 779.382 362.515 769.903C358.692 760.437 356.089 748.524 353.599 736.27C353.309 734.844 353.021 733.413 352.733 731.982C350.546 721.131 348.347 710.217 345.373 700.757C342.01 690.065 337.624 681.117 331.04 676.219C324.704 671.5 315.023 670.044 303.9 670.03C294.501 670.018 283.977 671.04 273.417 672.064C271.459 672.254 269.499 672.445 267.546 672.628C255.035 673.805 242.757 674.717 232.431 673.677C222.093 672.636 213.84 669.65 209.232 663.152C204.652 656.696 204.576 647.94 207.017 637.846C209.456 627.764 214.372 616.473 219.612 605.045C220.416 603.291 221.228 601.534 222.039 599.778C226.505 590.11 230.958 580.47 234.057 571.556C237.713 561.042 239.532 551.415 237.174 543.875C234.756 536.08 227.772 529.019 218.795 522.34C210.909 516.473 201.41 510.848 191.951 505.246C190.626 504.461 189.302 503.677 187.983 502.892C177.232 496.498 166.837 490.097 159.162 483.333C151.476 476.561 146.623 469.517 146.748 461.853L146.748 461.851C146.845 454.144 151.917 447.153 159.816 440.493C167.704 433.842 178.305 427.609 189.257 421.398C190.639 420.615 192.027 419.831 193.415 419.048C203.011 413.631 212.637 408.197 220.66 402.503C229.831 395.996 237.008 389.081 239.62 381.362C242.209 373.779 240.693 364.059 237.362 353.439C234.494 344.297 230.25 334.401 226.007 324.505C225.313 322.887 224.619 321.269 223.931 319.654C219.028 308.145 214.432 296.804 212.256 286.742C210.078 276.668 210.357 268.005 215.037 261.746C219.57 255.713 227.684 253.118 237.898 252.403C248.096 251.689 260.247 252.86 272.701 254.221C273.977 254.36 275.255 254.502 276.535 254.643C287.732 255.881 299.027 257.13 309.161 257.147C320.44 257.165 330.396 255.661 337.218 250.823C344.04 245.984 348.744 237.075 352.446 226.412C355.764 216.857 358.306 205.807 360.825 194.851C361.121 193.564 361.417 192.279 361.713 190.998C364.539 178.784 367.449 166.925 371.499 157.544C375.556 148.148 380.702 141.37 387.921 139.126L387.923 139.126C395.378 136.777 403.646 139.379 412.434 144.765C421.21 150.145 430.393 158.233 439.634 166.665C440.931 167.849 442.229 169.039 443.527 170.229C451.462 177.505 459.399 184.782 467.078 190.511C476 197.167 484.673 201.811 492.685 201.875L492.687 201.875C500.806 201.921 509.69 197.413 518.857 190.903C526.835 185.239 535.1 178.002 543.345 170.785C544.59 169.695 545.834 168.605 547.077 167.522C556.567 159.249 565.965 151.32 574.859 146.087C583.765 140.847 592.047 138.382 599.353 140.838L599.354 140.838C606.559 143.242 611.561 150.134 615.39 159.614C619.214 169.079 621.816 180.992 624.306 193.247C624.596 194.673 624.884 196.103 625.173 197.535C627.359 208.386 629.558 219.3 632.533 228.759C635.895 239.451 640.281 248.399 646.865 253.298C653.201 258.016 662.889 259.483 674.021 259.509C683.458 259.531 694.029 258.516 704.63 257.498C706.555 257.313 708.482 257.128 710.402 256.949C722.92 255.782 735.202 254.875 745.523 255.908C755.857 256.942 764.095 259.908 768.674 266.364C773.253 272.821 773.329 281.576 770.888 291.67C768.45 301.753 763.533 313.043 758.294 324.472C757.49 326.226 756.678 327.983 755.867 329.739C751.401 339.407 746.947 349.047 743.848 357.961C740.192 368.475 738.373 378.103 740.731 385.643C743.15 393.437 750.134 400.497 759.111 407.176C766.996 413.043 776.495 418.668 785.953 424.27C787.278 425.055 788.603 425.839 789.922 426.624C800.674 433.018 811.068 439.42 818.744 446.183C826.43 452.956 831.283 460 831.158 467.664Z" fill="white" stroke="#0D1140"/>
<path d="M851.713 467.664L851.713 467.666C851.616 475.372 846.544 482.363 838.645 489.024C830.757 495.675 820.156 501.908 809.203 508.118C807.822 508.902 806.434 509.685 805.046 510.469C795.45 515.885 785.824 521.319 777.8 527.013C768.63 533.521 761.453 540.436 758.841 548.155C756.252 555.738 757.768 565.458 761.099 576.077C763.967 585.219 768.21 595.115 772.454 605.011C773.148 606.629 773.842 608.248 774.53 609.863C779.433 621.372 784.029 632.712 786.205 642.774C788.383 652.848 788.104 661.511 783.424 667.77C778.891 673.803 770.778 676.399 760.563 677.114C750.365 677.827 738.214 676.657 725.759 675.296C724.484 675.156 723.206 675.015 721.926 674.874C710.729 673.635 699.435 672.386 689.299 672.37C678.021 672.351 668.065 673.855 661.243 678.694C654.421 683.532 649.717 692.442 646.014 703.104C642.697 712.659 640.155 723.71 637.636 734.666C637.34 735.953 637.044 737.238 636.748 738.519C633.922 750.733 631.012 762.592 626.962 771.973C622.905 781.369 617.759 788.146 610.54 790.39L610.538 790.391C603.083 792.739 594.815 790.138 586.027 784.751C577.251 779.371 568.068 771.284 558.827 762.851C557.53 761.668 556.232 760.478 554.935 759.288C546.999 752.012 539.062 744.734 531.383 739.005C522.461 732.35 513.788 727.705 505.776 727.642L505.774 727.642C497.655 727.596 488.771 732.104 479.604 738.613C471.626 744.278 463.361 751.514 455.116 758.732C453.871 759.822 452.627 760.911 451.384 761.995C441.894 770.268 432.496 778.196 423.602 783.429C414.696 788.669 406.414 791.135 399.108 788.679L399.107 788.678C391.902 786.274 386.9 779.382 383.071 769.903C379.247 760.437 376.645 748.524 374.155 736.27C373.865 734.844 373.577 733.413 373.288 731.982C371.102 721.131 368.903 710.217 365.928 700.757C362.566 690.065 358.18 681.117 351.596 676.219C345.259 671.5 335.579 670.044 324.455 670.03C315.056 670.018 304.532 671.04 293.973 672.064C292.014 672.254 290.055 672.445 288.101 672.628C275.59 673.805 263.312 674.717 252.986 673.677C242.648 672.636 234.396 669.65 229.787 663.152C225.208 656.696 225.132 647.94 227.573 637.846C230.011 627.764 234.928 616.473 240.167 605.045C240.971 603.291 241.783 601.534 242.594 599.778C247.06 590.11 251.513 580.47 254.613 571.556C258.268 561.042 260.087 551.415 257.73 543.875C255.312 536.08 248.327 529.019 239.35 522.34C231.465 516.473 221.965 510.848 212.507 505.246C211.182 504.461 209.857 503.677 208.539 502.892C197.787 496.498 187.393 490.097 179.717 483.333C172.031 476.561 167.178 469.517 167.303 461.853L167.303 461.851C167.401 454.144 172.472 447.153 180.372 440.493C188.259 433.842 198.86 427.609 209.813 421.398C211.195 420.615 212.582 419.831 213.97 419.048C223.566 413.631 233.193 408.197 241.216 402.503C250.386 395.996 257.563 389.081 260.176 381.362C262.765 373.779 261.249 364.059 257.917 353.439C255.05 344.297 250.806 334.401 246.562 324.505C245.868 322.887 245.174 321.269 244.486 319.654C239.584 308.145 234.987 296.804 232.812 286.742C230.634 276.668 230.912 268.005 235.593 261.746C240.126 255.713 248.239 253.118 258.453 252.403C268.652 251.689 280.803 252.86 293.257 254.221C294.532 254.36 295.811 254.502 297.091 254.643C308.288 255.881 319.582 257.13 329.717 257.147C340.995 257.165 350.951 255.661 357.773 250.823C364.595 245.984 369.299 237.075 373.002 226.412C376.32 216.857 378.861 205.807 381.381 194.851C381.677 193.564 381.972 192.279 382.269 190.998C385.095 178.784 388.004 166.925 392.055 157.544C396.111 148.148 401.257 141.37 408.476 139.126L408.478 139.126C415.933 136.777 424.201 139.379 432.989 144.765C441.766 150.145 450.948 158.233 460.19 166.665C461.486 167.849 462.784 169.039 464.082 170.229C472.018 177.505 479.954 184.782 487.634 190.511C496.555 197.167 505.228 201.811 513.241 201.875L513.242 201.875C521.361 201.921 530.245 197.413 539.413 190.903C547.39 185.239 555.656 178.002 563.9 170.785C565.145 169.695 566.39 168.605 567.633 167.522C577.122 159.249 586.52 151.32 595.414 146.087C604.321 140.847 612.603 138.382 619.908 140.838L619.909 140.838C627.114 143.242 632.116 150.134 635.946 159.614C639.769 169.079 642.372 180.992 644.862 193.247C645.152 194.673 645.44 196.103 645.728 197.535C647.915 208.386 650.114 219.3 653.088 228.759C656.451 239.451 660.837 248.399 667.421 253.298C673.757 258.016 683.444 259.483 694.576 259.509C704.014 259.531 714.584 258.516 725.185 257.498C727.111 257.313 729.037 257.128 730.958 256.949C743.476 255.782 755.757 254.875 766.079 255.908C776.412 256.942 784.65 259.908 789.229 266.364C793.809 272.821 793.885 281.576 791.444 291.67C789.006 301.753 784.089 313.043 778.849 324.472C778.045 326.226 777.233 327.983 776.422 329.739C771.956 339.407 767.503 349.047 764.404 357.961C760.748 368.475 758.929 378.103 761.287 385.643C763.705 393.437 770.69 400.497 779.666 407.176C787.551 413.043 797.05 418.668 806.508 424.27C807.834 425.055 809.158 425.839 810.478 426.624C821.229 433.018 831.624 439.42 839.299 446.183C846.985 452.956 851.838 460 851.713 467.664Z" fill="white" stroke="#0D1140"/>
</svg>
