<svg width="460" height="448" viewBox="0 0 460 448" fill="none" xmlns="http://www.w3.org/2000/svg">
<path d="M196.26 366.065L195.568 365.579L194.974 366.181C186.341 374.932 175 381.175 161.969 383.458C128.647 389.295 96.9023 367.014 91.0656 333.691C85.2289 300.369 107.51 268.625 140.832 262.788C174.154 256.952 205.898 279.233 211.735 312.555C214.018 325.587 212.001 338.375 206.705 349.467L206.34 350.231L207.033 350.717L248.864 380.079C253.102 383.053 254.126 388.9 251.151 393.138C248.176 397.376 242.33 398.4 238.092 395.425L196.26 366.065ZM109.536 330.456C113.586 353.578 135.612 369.038 158.733 364.988C181.855 360.938 197.315 338.912 193.265 315.79C189.215 292.668 167.189 277.208 144.067 281.258C120.946 285.308 105.485 307.334 109.536 330.456Z" fill="#FF0A47" stroke="#0D1140" stroke-width="2"/>
<path d="M31.6867 180.862C21.213 152.085 36.0501 120.267 64.8264 109.793L252.519 41.4788C272.281 34.2861 294.133 44.4754 301.326 64.2377C301.958 65.9722 301.063 67.8901 299.329 68.5214L119.796 133.866C89.9819 144.717 74.6097 177.683 85.4612 207.498L97.904 241.684C98.5824 243.548 97.8337 245.656 96.1244 246.765C86.553 252.977 78.3292 260.743 71.6729 269.59C69.4812 272.503 64.8259 271.911 63.6467 268.671L31.6867 180.862ZM404.756 307.398L279.854 352.859C278.825 353.233 277.689 353.184 276.696 352.721L247.469 339.093C245.866 338.346 244.908 336.645 245.042 334.837C246.029 321.6 244.291 307.946 239.466 294.69C221.827 246.227 169.416 220.476 120.663 235.354C118.428 236.036 116.049 234.906 115.273 232.775L103.662 200.873C96.4688 181.111 106.658 159.259 126.421 152.066L322.274 80.7815C342.036 73.5889 363.888 83.7782 371.081 103.54L427.515 258.591C434.708 278.353 424.518 300.205 404.756 307.398Z" fill="#F7F9FD" stroke="#0D1140" stroke-width="2"/>
<path d="M195.667 357.924L194.974 357.438L194.38 358.04C185.748 366.791 174.407 373.034 161.375 375.317C128.053 381.154 96.3091 358.873 90.4724 325.55C84.6356 292.228 106.917 260.484 140.239 254.647C173.561 248.811 205.305 271.092 211.142 304.414C213.425 317.446 211.407 330.234 206.111 341.326L205.747 342.09L206.439 342.576L248.27 371.938C252.509 374.912 253.533 380.759 250.558 384.997C247.583 389.235 241.737 390.259 237.499 387.284L195.667 357.924ZM108.942 322.315C112.992 345.437 135.019 360.897 158.14 356.847C181.261 352.797 196.722 330.771 192.672 307.649C188.622 284.527 166.595 269.067 143.474 273.117C120.353 277.167 104.892 299.193 108.942 322.315Z" fill="#FF0A47" stroke="#0D1140" stroke-width="2"/>
<path d="M39.4718 171.51C28.9981 142.734 43.8352 110.915 72.6115 100.442L260.305 32.127C280.066 24.9344 301.918 35.1237 309.111 54.886C309.743 56.6205 308.848 58.5384 307.114 59.1697L127.581 124.514C97.7671 135.366 82.3948 168.332 93.2463 198.146L105.689 232.332C106.368 234.196 105.619 236.304 103.91 237.414C94.3381 243.625 86.1143 251.391 79.4581 260.238C77.2664 263.151 72.6111 262.559 71.4318 259.319L39.4718 171.51ZM412.541 298.046L287.64 343.507C286.61 343.881 285.474 343.832 284.481 343.369L255.254 329.741C253.651 328.994 252.693 327.293 252.828 325.485C253.815 312.248 252.076 298.594 247.251 285.338C229.612 236.876 177.201 211.124 128.448 226.002C126.214 226.684 123.834 225.554 123.058 223.423L111.447 191.521C104.254 171.759 114.443 149.908 134.206 142.715L330.059 71.4298C349.821 64.2371 371.673 74.4264 378.866 94.1888L435.3 249.24C442.493 269.001 432.303 290.854 412.541 298.046Z" fill="#F7F9FD" stroke="#0D1140" stroke-width="2"/>
</svg>
