<svg width="48" height="64" viewBox="0 0 48 64" fill="none" xmlns="http://www.w3.org/2000/svg">
<path d="M25.4404 5.98633H34.1904V55L29.1904 60H18.6973V24.3164H10.2891V17.6514L15.2891 12.6514C16.793 12.4691 18.1715 12.1159 19.4248 11.5918C19.7381 11.4551 20.0336 11.3162 20.3113 11.1752L20.3642 11.1482L20.4404 10.9863C20.6244 10.7937 23.8504 7.57273 25.4404 5.98633Z" fill="white"/>
<path d="M34.1904 5.98633H25.4404C23.8504 7.57273 20.6244 10.7937 20.4404 10.9863M34.1904 5.98633V55L29.1904 60M34.1904 5.98633L29.1904 10.9863M20.4404 10.9863L20.3642 11.1482M20.4404 10.9863H20.6704M29.1904 60V55V10.9863M29.1904 60H18.6973V24.3164H10.2891V17.6514M29.1904 10.9863H20.6704M20.3642 11.1482L20.167 11.5674C19.9619 11.9775 19.6087 12.4788 19.1074 13.0713C18.6289 13.641 18.0365 14.2334 17.3301 14.8486C16.8128 15.3142 16.1325 15.7601 15.2891 16.1865C15.0178 16.3236 14.7298 16.4587 14.4248 16.5918C13.1715 17.1159 11.793 17.4691 10.2891 17.6514M20.3642 11.1482C20.3467 11.1572 20.329 11.1662 20.3113 11.1752M20.3642 11.1482L20.3113 11.1752M20.3642 11.1482C20.4689 11.0946 20.5709 11.0406 20.6704 10.9863M10.2891 17.6514L15.2891 12.6514C16.793 12.4691 18.1715 12.1159 19.4248 11.5918C19.7381 11.4551 20.0336 11.3162 20.3113 11.1752" stroke="#FF0A47"/>
</svg>